<svg id="Mark_s_List" data-name="Mark&apos;s List" xmlns="http://www.w3.org/2000/svg" viewBox="0 0 100 100"><defs><style>.cls-1{fill:#4d80c1;}</style></defs><title>SVG Icon</title><g id="SAS_Business_Intelligence" data-name="SAS Business Intelligence"><path class="cls-1" d="M59.9,30.4l-1.7-2c-2.3-2.8-6.1-2.8-8.9-.4s-3.6,6.2-1.3,9l.8.9"/><path class="cls-1" d="M48.7,37.8,61.2,52.9c9,10.9,4.9,24.3-7.2,31.9S23.7,89.1,16.9,78c5.2,15.5,22.8,25.6,42.3,20.7,16.9-4.2,35.7-25.9,15.1-50.9L59,29.3"/><path class="cls-1" d="M50.3,61,38.8,47.2c-9-10.9-4.9-24.3,7.2-31.9S76.3,10.9,83.1,22C77.9,6.5,60.3-3.6,40.8,1.2,23.9,5.4,5.1,27.1,25.7,52.2L40.3,69.8"/><path class="cls-1" d="M38,67.1l3.5,4.2c2.3,2.8,6.1,2.8,8.9.4s3.6-6.2,1.3-9l-3.4-4"/></g></svg>