<?xml version="1.0" encoding="UTF-8" standalone="no"?>
<!-- Created with Inkscape (http://www.inkscape.org/) -->

<svg
   xmlns:dc="http://purl.org/dc/elements/1.1/"
   xmlns:cc="http://creativecommons.org/ns#"
   xmlns:rdf="http://www.w3.org/1999/02/22-rdf-syntax-ns#"
   xmlns:svg="http://www.w3.org/2000/svg"
   xmlns="http://www.w3.org/2000/svg"
   xmlns:sodipodi="http://sodipodi.sourceforge.net/DTD/sodipodi-0.dtd"
   xmlns:inkscape="http://www.inkscape.org/namespaces/inkscape"
   id="svg2"
   version="1.1"
   inkscape:version="0.91 r13725"
   width="1024"
   height="1024"
   viewBox="0 0 1024 1024"
   sodipodi:docname="Tribal Coiled Dragon.svg"
   inkscape:export-filename="Tribal Coiled Dragon.png"
   inkscape:export-xdpi="90"
   inkscape:export-ydpi="90">
  <metadata
     id="metadata8">
    <rdf:RDF>
      <cc:Work
         rdf:about="">
        <dc:format>image/svg+xml</dc:format>
        <dc:type
           rdf:resource="http://purl.org/dc/dcmitype/StillImage" />
        <dc:title />
      </cc:Work>
    </rdf:RDF>
  </metadata>
  <defs
     id="defs6" />
  <sodipodi:namedview
     pagecolor="#ffffff"
     bordercolor="#666666"
     borderopacity="1"
     objecttolerance="10"
     gridtolerance="10"
     guidetolerance="10"
     inkscape:pageopacity="0"
     inkscape:pageshadow="2"
     inkscape:window-width="1366"
     inkscape:window-height="715"
     id="namedview4"
     showgrid="false"
     inkscape:zoom="0.55078125"
     inkscape:cx="202.43972"
     inkscape:cy="510.1844"
     inkscape:window-x="-8"
     inkscape:window-y="-8"
     inkscape:window-maximized="1"
     inkscape:current-layer="svg2" />
  <path fill="#0070b8"
     style=""
     d="m 871.88997,1016.2182 c 9.95696,-11.7831 27.10946,-34.75632 32.25701,-43.20342 4.69312,-7.7014 8.92984,-16.6316 8.22488,-17.3365 -0.21753,-0.2176 -2.54365,1.2449 -5.16926,3.2497 -46.87403,35.791 -118.54098,55.82422 -183.40338,51.26722 -19.42591,-1.3649 -35.52805,-3.4015 -34.90191,-4.4146 0.2619,-0.4236 5.47994,-1.0764 11.59582,-1.4506 14.36394,-0.8788 37.43508,-5.15912 50.07794,-9.29062 11.93321,-3.8995 24.96031,-10.5006 31.10835,-15.7631 l 4.48413,-3.8382 -7.83625,-2.63249 c -4.30996,-1.4478 -12.95542,-5.289 -19.2122,-8.53581 -42.5096,-22.0597 -76.84349,-66.0172 -96.70959,-123.8169 -3.67416,-10.6899 -10.52244,-35.05379 -10.52244,-37.4355 0,-0.9065 3.01886,3.2808 6.70859,9.305 39.79568,64.9747 91.63843,107.26781 142.4906,116.24331 12.45376,2.1981 33.9036,1.6622 46.66721,-1.1658 64.19888,-14.2247 97.22775,-51.3172 97.49305,-109.4878 0.0365,-7.9699 -0.55994,-19.0615 -1.32512,-24.6481 -1.89733,-13.8525 -7.59971,-35.9972 -12.87285,-49.9904 -2.4035,-6.3782 -4.16391,-11.8028 -3.91195,-12.0548 0.63336,-0.6333 14.36828,18.0253 19.77194,26.8598 20.43957,33.4171 29.09527,64.1586 27.72693,98.475 -1.8515,46.4335 -23.95667,90.2258 -67.18457,133.0985 -12.89471,12.78881 -38.77573,34.34801 -41.2334,34.34801 -0.49468,0 2.05973,-3.5018 5.67647,-7.7819 z m -589.24807,0.196 c -50.4422,-3.4714 -94.9052,-20.95902 -128.93686,-50.71152 -28.00024,-24.47949 -48.24825,-58.092 -58.273114,-96.73569 -3.34754,-12.90391 -4.46134,-21.73691 -6.09953,-48.3715 -1.54205,-25.07131 -0.77716,-41.00971 2.80727,-58.499 13.501064,-65.87471 57.561754,-125.16013 126.353884,-170.01402 13.35576,-8.70823 31.76919,-18.90007 34.14643,-18.90007 0.81627,0 -0.96092,2.53585 -3.94934,5.63522 -18.46792,19.15367 -45.23229,55.7064 -60.71383,82.91827 -16.27466,28.606 -27.85531,58.1084 -33.82503,86.1713 -2.64204,12.4201 -2.90849,15.7844 -2.95132,37.2669 -0.0383,19.1655 0.32917,25.3331 1.9495,32.7379 11.09022,50.6796 42.21911,89.0365 87.19465,107.441 25.14128,10.2881 51.55594,14.4747 85.23231,13.509 51.8489,-1.4868 105.47507,-16.0025 151.36702,-40.9724 25.32726,-13.7807 44.72591,-27.8537 101.23981,-73.4457 51.14623,-41.2617 69.74321,-54.6995 91.9467,-66.4386 16.78509,-8.8744 38.04851,-15.1015 47.76521,-13.9884 2.64487,0.3031 1.39853,1.0066 -6.97694,3.9387 -21.05859,7.372 -44.68992,20.3177 -65.25261,35.7465 -24.98789,18.7492 -44.8257,37.9377 -95.31066,92.1911 -65.03822,69.893 -93.47301,94.1932 -133.60927,114.1819 -39.67715,19.76001 -88.98433,29.44431 -134.10428,26.33911 z m 25.22433,-100.86672 c -39.09892,-3.947 -73.99472,-18.4642 -101.11798,-42.0666 -19.15424,-16.6678 -30.20879,-37.5908 -34.74706,-65.766 -1.94481,-12.0742 -1.64953,-40.354 0.57164,-54.7421 12.98048,-84.0843 70.28083,-169.02941 150.98235,-223.82444 30.8477,-20.94506 62.04382,-36.62518 97.84337,-49.17898 13.8835,-4.86851 43.80259,-13.32353 44.53946,-12.58665 0.25547,0.25546 -2.10059,1.76441 -5.23578,3.35311 -23.76618,12.04324 -54.13963,34.42813 -77.01248,56.75731 -35.47187,34.62874 -56.84442,71.17545 -65.8479,112.5988 -2.02266,9.30605 -2.37799,14.30335 -2.41666,33.98775 -0.039,19.7983 0.29732,24.7666 2.36597,34.9639 4.31708,21.2804 14.23671,48.9736 23.57286,65.8095 l 3.80029,6.8531 -4.15848,-0.7684 c -11.1236,-2.0553 -25.81496,-12.0559 -40.9165,-27.8524 -8.19744,-8.5746 -23.99759,-28.3282 -27.11643,-33.9012 -1.64495,-2.9393 -2.22403,-0.4212 -2.86459,12.4568 -1.07019,21.5167 2.01548,38.4529 10.03363,55.0707 6.654,13.7905 18.11303,25.4437 31.4811,32.0144 11.83103,5.8152 18.12058,7.0784 32.1243,6.4519 18.92261,-0.8465 37.76804,-8.5607 59.05401,-24.173 9.72686,-7.1342 31.14621,-28.3311 37.68983,-37.2984 6.17323,-8.4598 12.80905,-21.3769 12.85006,-25.0138 0.0322,-2.7375 0.1034,-2.7779 1.34172,-0.7472 0.89905,1.47431 1.28586,7.6942 1.23488,19.85741 -0.0673,16.0314 -0.34956,18.6266 -2.97873,27.3711 -6.80205,22.6231 -18.81806,41.69789 -38.04014,60.3865 -9.82836,9.5556 -10.91158,10.9442 -8.19382,10.5042 1.72248,-0.2788 6.379,-1.0194 10.34784,-1.6456 17.75509,-2.8012 42.00594,-11.8285 68.99357,-25.6827 29.94424,-15.3719 60.01213,-34.6073 93.68174,-59.9314 9.61512,-7.2319 17.9282,-13.1489 18.47347,-13.1489 1.10236,0 10.69443,5.5096 15.36698,8.8266 l 3.01064,2.1372 -4.6207,3.899 c -2.5414,2.1445 -10.41693,9.2239 -17.50121,15.7321 -28.78278,26.4421 -46.19397,40.9136 -67.07255,55.7482 -56.1604,39.9029 -111.72526,64.0601 -165.31324,71.8711 -14.35551,2.0924 -41.7083,2.9387 -54.20546,1.6771 z m 320.88778,-148.1675 c -1.60323,-2.594 -23.41565,-19.1586 -36.94469,-28.0561 -38.55858,-25.3585 -81.76756,-41.3678 -127.23027,-47.1398 -15.98507,-2.0294 -53.11184,-1.7611 -68.15935,0.4927 -6.7891,1.0168 -14.15514,2.2693 -16.36897,2.7833 -2.21384,0.5139 -4.02516,0.7102 -4.02516,0.4361 0,-0.9052 21.85181,-10.7319 30.10539,-13.5383 20.34569,-6.9179 35.49746,-9.4672 56.33268,-9.478 42.17721,-0.022 81.00793,14.9353 121.25708,46.7064 16.55685,13.0694 50.88318,48.9505 46.8294,48.9505 -0.59468,0 -1.40293,-0.5206 -1.79611,-1.1568 z m 5.40341,-22.8023 c -2.96002,-2.467 -6.49668,-5.2118 -7.85926,-6.0995 -2.42783,-1.5818 -2.22339,-1.7676 10.21202,-9.2788 43.34659,-26.1822 83.73506,-41.3033 127.54062,-47.7501 12.78054,-1.881 49.87142,-1.8786 61.71909,0 20.88012,3.3176 39.41406,8.5527 56.35096,15.9171 8.80995,3.8306 28.9498,15.2048 28.21818,15.9364 -0.22469,0.2247 -6.42393,-1.5564 -13.77605,-3.958 -14.4408,-4.7172 -36.40031,-9.5849 -53.25971,-11.806 -17.61041,-2.32 -57.95473,-1.7455 -76.414,1.088 -42.3501,6.5009 -82.6625,21.8062 -117.99491,44.7988 -4.89076,3.1827 -8.99643,5.7523 -9.12369,5.7102 -0.12738,-0.042 -2.65324,-2.0949 -5.61325,-4.5618 z M 389.45045,584.92129 c 7.67042,-4.17003 20.90128,-12.206 29.40194,-17.85771 61.22337,-40.70476 107.94855,-96.63725 132.5291,-158.64432 29.55196,-74.54797 25.77633,-135.92075 -10.37446,-168.63506 -21.11698,-19.10963 -49.74798,-28.48727 -87.16174,-28.54851 -23.85766,-0.0391 -46.22709,5.41535 -68.38733,16.67508 -28.64778,14.5561 -58.36286,41.21739 -75.57025,67.80406 l -4.16824,6.44025 -0.33167,-5.84846 c -0.87934,-15.49829 20.90664,-57.30719 43.22179,-82.94579 36.33587,-41.74742 91.57886,-67.52957 164.27153,-76.66622 18.96902,-2.3842 76.68001,-2.72637 97.14048,-0.57596 21.42243,2.25152 63.76266,8.86262 65.0584,10.15839 0.13131,0.13123 -9.98529,0.24186 -22.48117,0.24583 -20.32895,0.006 -23.67988,0.26692 -31.84347,2.47477 -17.93943,4.85175 -32.41029,14.46356 -38.10483,25.30996 l -2.14675,4.0889 3.70693,2.84363 c 18.25415,14.00297 43.30276,38.67062 58.17513,57.29035 25.3561,31.74507 45.94058,71.10231 56.6471,108.30844 7.70298,26.76841 11.07867,51.16641 10.59941,76.60756 l -0.32345,17.17401 -3.64564,-10.73376 c -12.15283,-35.78111 -28.51154,-64.00288 -49.22364,-84.91974 -11.07455,-11.18404 -29.23321,-24.3964 -31.0427,-22.58687 -0.34563,0.34563 0.19893,3.9062 1.21037,7.91236 5.70464,22.59777 7.46833,52.37195 4.45276,75.16963 -5.45447,41.23565 -23.38023,83.95764 -50.47137,120.28714 -10.74309,14.40659 -11.91128,14.83827 -5.30491,1.96016 13.35247,-26.02846 17.96276,-51.27929 13.76136,-75.37182 -1.67765,-9.62044 -7.6473,-26.33419 -9.61466,-26.91911 -0.59035,-0.17567 -3.72998,4.58965 -6.97694,10.58925 -31.30378,57.84191 -80.47947,105.08854 -140.56939,135.05525 -19.13442,9.54227 -49.74387,21.44013 -55.15866,21.44013 -0.67154,0 5.05481,-3.41183 12.72522,-7.58185 z M 67.382616,514.41512 c 2.15048,-24.12844 10.83383,-43.46505 26.88191,-59.86201 12.906194,-13.18681 28.807824,-22.9395 47.817324,-29.32697 8.27129,-2.7793 8.73581,-3.11923 14.1784,-10.37683 6.39205,-8.52367 16.05029,-15.65486 24.66888,-18.21428 3.0836,-0.91574 9.30234,-1.59969 14.15915,-1.55729 8.63384,0.0755 8.64808,0.0802 4.62231,1.55839 -17.02295,6.25053 -30.41305,17.70677 -37.02472,31.67743 -3.38536,7.15333 -4.43104,8.49651 -6.63372,8.52106 -4.17142,0.0465 -15.89944,3.25977 -23.82267,6.52705 -26.74675,11.02947 -49.695704,37.50396 -61.591454,71.05345 -1.62226,4.57526 -3.18521,8.31866 -3.47319,8.31866 -0.28803,0 -0.18999,-3.74339 0.21789,-8.31866 z m 412.021004,-8.31866 c 0.26619,-0.59036 2.47656,-4.34713 4.91187,-8.34843 19.99552,-32.85341 36.41126,-78.1535 42.09492,-116.16313 2.44429,-16.34622 2.90338,-42.00358 0.97949,-54.74215 -3.59015,-23.77165 -14.0069,-43.52627 -28.65966,-54.35086 -11.49886,-8.49471 -23.64732,-12.35395 -43.76062,-13.90158 -47.01277,-3.61742 -92.7155,12.75057 -124.7969,44.69479 -10.35353,10.30923 -11.06518,10.81404 -12.69957,9.00801 -1.60652,-1.77518 -1.44999,-2.47409 2.16915,-9.68546 6.21749,-12.38879 11.10711,-19.10508 21.46643,-29.48592 20.13692,-20.17871 49.0084,-34.94249 80.90966,-41.37407 13.93545,-2.80952 40.05579,-3.83667 52.97258,-2.08308 44.26708,6.00975 72.86366,29.62408 81.05405,66.93249 2.34805,10.69558 2.27201,41.1364 -0.14526,58.09978 -2.203,15.46043 -7.68161,37.31762 -12.96627,51.72951 -8.97324,24.47099 -25.22243,53.7453 -41.93295,75.54584 -7.32053,9.55036 -22.84505,26.89149 -21.59707,24.12426 z m -330.0558,-32.1989 c -8.73184,-1.46942 -22.73333,-5.84961 -28.46423,-8.90472 -3.34653,-1.78403 -2.916,-1.83194 16.63731,-1.85222 13.10788,-0.0143 21.66565,-0.49622 24.66352,-1.39088 3.64107,-1.08665 7.44958,-4.22889 18.41075,-15.19005 37.74728,-37.74729 64.58575,-76.1404 73.55788,-105.22637 1.00157,-3.24696 2.02811,-6.55474 2.28117,-7.35058 0.32595,-1.02543 1.5569,-0.48402 4.2247,1.85834 8.87353,7.79106 18.80994,10.95114 36.63477,11.65106 16.12446,0.63311 29.50119,-1.14837 46.44238,-6.18504 5.63877,-1.67644 10.38563,-2.91468 10.54867,-2.75167 0.16315,0.16315 -4.65977,2.6034 -10.71726,5.42305 -15.53654,7.23201 -49.17738,25.12636 -66.29246,35.26249 -58.23849,34.49082 -91.10628,66.71362 -91.21143,89.42152 -0.0251,5.29514 -0.15099,5.52617 -3.37977,6.17191 -5.45805,1.09159 -24.45447,0.55776 -33.336,-0.93684 z m -79.134884,-8.6562 c -2.02389,-8.06298 -9.0926,-24.31478 -15.79422,-36.3128 -3.75939,-6.73049 -5.66614,-11.21895 -5.08773,-11.97654 24.78979,-32.46865 33.60216,-48.78152 35.61939,-65.93635 l 0.72714,-6.18368 12.88051,-8.64497 c 18.878494,-12.67058 29.276094,-21.30453 46.718084,-38.79368 21.41012,-21.46805 36.16552,-40.34551 51.97788,-66.49845 22.96465,-37.98249 43.82817,-92.74256 51.57369,-135.364555 2.77299,-15.25907 2.815,-15.33575 4.40985,-8.05032 4.01482,18.339505 3.95603,48.033355 -0.14562,73.526215 -1.40344,8.72319 -7.35931,33.47034 -9.68725,40.25158 -0.40534,1.18071 3.47112,-5.34004 8.6143,-14.49057 41.131,-73.17822 94.93609,-127.399445 161.8846,-163.136675 17.34332,-9.25789 53.51514,-23.63065 59.47108,-23.63065 0.98268,0 -4.21697,3.43934 -11.55481,7.64297 -53.46483,30.62837 -95.85437,72.13343 -119.48094,116.987885 -6.4702,12.28349 -11.80204,24.95801 -11.22607,26.68591 0.20394,0.61133 4.95853,-1.95639 10.56606,-5.70605 38.05667,-25.44762 92.55087,-51.912165 134.89242,-65.509115 29.27796,-9.40188 60.03342,-15.97283 85.68477,-18.30666 7.83715,-0.71305 7.36035,-0.48514 -15.56394,7.4395 -102.53774,35.446055 -177.16177,84.532255 -219.47652,144.367275 -6.61922,9.35993 -19.88622,34.13777 -19.88622,37.14016 0,0.70069 -5.67547,5.27126 -12.61216,10.15683 -14.77941,10.40927 -34.85253,29.95511 -39.06249,38.03637 -1.53772,2.95178 -4.79141,12.96691 -7.2304,22.25583 -5.59558,21.31105 -9.67981,32.51434 -15.30548,41.98373 -4.74081,7.97997 -15.84445,19.8724 -21.0841,22.58192 l -3.18087,1.64488 2.52042,-6.12833 c 2.43499,-5.9206 3.41971,-14.61999 1.76639,-15.60495 -0.44277,-0.26369 -4.87055,1.85265 -9.83952,4.70314 -16.33116,9.36852 -42.14316,18.44134 -70.02366,24.61304 -11.99417,2.65503 -22.70899,7.50826 -30.63884,13.87763 -12.284424,9.86704 -22.988954,28.70861 -28.084444,49.43288 l -3.0111,12.24664 -1.33035,-5.30004 z M 191.46278,298.82787 c 7.645,-7.98584 19.84806,-16.33602 29.76226,-20.36547 l 5.90074,-2.39821 7.36393,-17.9751 c 4.05016,-9.88629 7.36392,-18.16242 7.36392,-18.39139 0,-0.22898 -4.40917,4.19578 -9.7982,9.83277 -6.34425,6.63622 -13.59501,12.79294 -20.56916,17.46558 -10.84553,7.26643 -15.46995,12.15012 -19.06297,20.13181 -3.86758,8.59166 -6.33449,15.56395 -5.5067,15.56395 0.46592,0 2.5117,-1.7388 4.54618,-3.86394 z m 112.10994,37.07453 c -12.31111,-3.035 -29.931,-12.52729 -41.11804,-22.15136 l -3.5499,-3.05389 3.47644,-4.80772 c 4.75735,-6.57908 17.91042,-19.42445 28.82804,-28.1536 4.98397,-3.98492 9.3764,-7.2453 9.76103,-7.2453 0.38463,0 0.23364,2.53585 -0.33561,5.63523 -0.56921,3.09938 -0.83305,9.74089 -0.58631,14.75892 0.98038,19.93712 10.78649,30.23734 28.73286,30.18063 13.69982,-0.0433 27.97696,-7.59581 37.54829,-19.86281 4.09786,-5.25199 4.1628,-3.88387 0.14776,3.11565 -6.9052,12.0383 -20.27967,23.27575 -34.70051,29.15595 -7.56858,3.08614 -20.88506,4.23264 -28.20412,2.4283 z"
     id="path4138"
     inkscape:connector-curvature="0" />
</svg>
