<?xml version="1.0" encoding="utf-8"?>
<!DOCTYPE svg PUBLIC "-//W3C//DTD SVG 1.1//EN" "http://www.w3.org/Graphics/SVG/1.1/DTD/svg11.dtd">
<svg version="1.1" id="Layer_1" xmlns="http://www.w3.org/2000/svg" xmlns:xlink="http://www.w3.org/1999/xlink" x="0px" y="0px"
	 viewBox="-2554.1111 -765.2652 5422.1797 1678.5886" enable-background="new -2554.1111 -765.2652 5422.1797 1678.5886"
	 xml:space="preserve">
<g id="_x23_ffffffff">
</g>
<path fill="#0070b8" d="M2777.6072,320.8973c-27.3801,2.1062-54.5852,4.2125-81.9656,6.3185
	c-7.7227-40.8948-14.041-81.9652-20.5349-123.0356c-44.23-15.7963-98.2881-25.4496-119.5251-73.1896
	c-37.9111-41.7724-15.9719-97.0594-20.009-146.7301c-15.2698-48.442-83.0186-58.9728-93.0225-110.3986
	c-43.177-139.0074-129.3545-260.288-234.6633-359.629c-8.4243,21.5881-16.8491,43.001-25.2734,64.5891
	c-86.1777-73.8915-186.7479-128.3011-290.4769-173.2327c7.7227,26.8538,15.7961,53.7074,23.5188,80.7367
	c-100.5698-34.401-201.1394-78.806-309.4319-79.1571c8.7756,12.286,26.1516,36.6826,34.7517,48.793
	c-91.4429-12.8125-183.4124-36.3314-276.2598-22.2903c20.7109,22.8169,42.4749,44.7562,63.3608,67.5732
	c-70.5566,10.7064-141.4648,16.1473-211.8459,27.2047c-0.1753,11.2329-0.1753,34.0498-0.1753,45.4583
	c-192.0129,27.7313-373.4951,98.9902-558.1362,155.3303C338.6579-177.3882,24.6624-64.5324-275.6429,79.0384
	c-214.4788,87.5818-441.5945,136.7258-666.0775,190.4332c-139.885,34.7519-285.0355,30.715-427.0266,49.6706
	c-140.5872-1.9307-280.6477-14.3922-420.8838-22.1149c-112.3293-8.0736-215.3563-55.989-322.2445-86.5285
	c-86.0022-28.9599-135.4973-112.1539-171.1267-190.2578c26.6782,27.5558,52.8298,55.8136,83.1938,79.5081
	c-3.8613-83.8959-48.9685-170.6-7.8982-251.8633c74.2427-147.4321,221.3239-250.108,378.0582-293.1091
	c155.5059-48.4419,318.7343-13.5146,477.7505-11.9351c118.2966,10.8821,234.3118,39.8418,351.5554,59.324
	c96.1819,12.8125,205.1765,18.78,287.4927-41.7725c-265.0268-0.8776-509.8695-125.1418-720.8379-276.6109
	c0.1755,15.7964,0.5265,47.5645,0.702,63.5364c-65.4669-19.6577-126.3705-51.2502-191.3108-71.61
	c-61.0791-9.4778-123.3867-1.9307-184.8168-1.4042c25.4496,18.6046,51.2502,36.6826,76.3489,55.8137
	c-96.884-5.2654-197.1028-15.9719-283.807,37.5601c25.2742,18.2534,50.8993,35.9805,76.1733,54.2339
	c-95.1288,24.2211-184.9922,64.7649-273.8025,105.8352c-106.8884,57.0422-205.001,148.3098-237.4712,268.5374
	c-52.8298,198.6823-8.7756,434.0472,152.5222,571.6505c100.9209,85.3,231.5034,115.6641,355.0657,151.6444
	c78.104,23.87,160.5957,14.0412,240.2793,27.2048c93.9003,15.9719,187.4495-20.0087,281.5253-3.8614
	c86.5286,15.6208,174.4614,7.8983,260.4634-5.6165c203.0704-31.9436,408.4223-47.3888,610.7905-82.8428
	c104.9577-28.0823,225.3605-19.3066,312.9423-93.1981c60.5524-55.8137,158.8406-74.4182,187.2739-160.0693
	c59.1483,18.9556,120.2275,31.0662,179.9023,47.7399c-54.585,7.1962-109.521-0.8774-164.1061,4.2123
	c-37.3844,18.0781-73.8915,39.1398-106.7126,64.5894c-37.2092,31.2416-25.8007,97.4106-76.7,114.962
	c-78.8058,41.2458-181.1309,99.5166-180.9554,199.9109c48.9687-38.9642,99.1656-76.6999,157.7876-100.2188
	c8.4246,19.3066,16.6738,38.6132,24.923,58.0953c58.2707-71.2589,154.8037-66.1689,236.0669-47.0379
	c14.5677,26.8538,21.9393,56.8668,31.7681,85.6511c37.9113-15.6208,74.9448-32.8212,112.5049-49.1441
	c7.1962,23.1679,14.5677,46.3358,21.5881,69.8549c9.8289-1.5797,29.311-4.739,39.14-6.3185
	c14.2167-23.1679,27.7311-46.8624,41.7722-70.2058c17.9026,26.5026,33.6989,54.4095,48.6176,82.8428
	c28.4333-33.6989,49.1442-72.663,69.5037-111.2762c16.6741,26.3272,31.2418,54.0585,50.8994,78.455
	c46.8623-68.6262,52.1277-182.7106-34.0499-222.9033c-124.6154-11.7596-256.2512,21.9393-375.0743-30.3641
	c127.4233-57.9198,269.2391-51.0748,403.1567-78.9815c41.2458-32.8213,82.8429-68.4507,108.819-114.962
	c-22.115-77.7529-111.9784-93.3737-171.4777-133.2155c58.0952-5.4409,116.7173,18.6045,173.4084,10.1799
	c228.6953-104.9577,475.6442-158.3141,719.2581-215.8828c115.6641-34.9274,231.5037-77.4019,354.0127-76.5244
	c112.1538-16.8494,221.3237,31.9437,333.4778,20.8864c-22.115,18.2534-43.7034,37.0336-64.5894,56.8666
	c-18.7803-12.8125-31.5928-40.5437-57.0422-39.1396c-52.8301,1.4041-109.8723-17.9025-158.4895,10.1799
	c-34.7522,27.0291-88.8105-17.5515-114.6111,24.2209c-53.0054,45.2827-40.5439,119.3498-32.2947,180.2533
	c20.0085-45.6337,46.3357-89.6879,95.3042-108.1169c7.7229,27.3802,15.2698,54.936,23.519,82.3162
	c19.4822-27.5557,39.3154-55.1115,60.0259-81.9652c5.0901,40.8949,9.478,81.7898,18.2537,121.9825
	c16.1472-29.4864,30.364-60.2014,47.74-89.1613c47.5642-9.4777,61.6055,67.7487,111.1003,59.3239
	c50.8992-9.8287,74.7693-76.1733,130.5828-78.9815c46.8629-5.7919,92.4962-17.9025,133.9178-41.0704
	c-7.8982,34.5764-21.7637,71.4344-0.7021,104.2556c33.5232,63.5363-6.1431,132.8644-9.8289,198.3314
	c43.1765-36.3315,78.8059-80.7366,118.8237-120.5785c-42.124,60.728-89.6882,117.9457-142.8691,169.1959
	c-60.2013,50.5483-137.7789,78.2795-214.83,88.9858c44.5806-80.7366,98.8152-165.3346,83.7205-262.5696
	c-67.9238,91.2676-128.4763,190.7843-222.5522,258.3574c-67.0464,58.2708-163.053,32.9966-239.7527,11.4084
	c-17.2004,6.494-34.0498,13.6901-50.7236,21.2372c-32.8215-46.3358-79.6838-24.2209-124.4397-14.3922
	c1.053-40.3684,18.4287-76.8753,33.6987-113.3824c-50.8994-2.8083-94.7781,22.2903-133.3911,52.3033
	c-0.8777-17.9025-2.6326-53.8829-3.335-71.9609c-40.8948,35.6295-83.3691,69.8549-119.1741,110.5742
	c-25.2742,37.7357-12.2859,85.3-12.4617,127.4235c25.9763-20.5352,51.0747-42.299,76.5244-63.5362
	c10.1797,33.8743,20.0085,68.2751,34.0498,101.0964c29.3108-13.5146,55.6379-32.9968,85.8264-44.7562
	c69.1528,4.7388,98.1125,81.2631,158.6653,104.9577c42.2988,4.3879,84.949-0.3511,127.5989,1.2286
	c-65.8179,12.1104-132.5134,20.3596-199.3845,22.8168c-79.8591,2.9837-151.4688-41.9479-230.9768-42.8256
	c-61.4299-6.6695-123.387,12.1105-170.0734,52.4789c80.0344-13.5146,163.0527-33.1722,242.5607-5.2654
	c48.9688,18.9556,110.3987,26.3271,143.9219,70.2057c-29.8374,17.5515-59.3237,37.0336-92.6716,46.687
	c-33.8743,5.6165-53.0051-30.5396-77.0508-47.2134c-15.0942,21.9393-29.8374,44.2296-44.7563,66.3444
	c-26.3271-24.7474-51.4255-50.8992-75.6467-77.7529c-1.5796,29.3109-4.7385,59.1484,0.7024,88.2838
	c24.7476,45.2827,81.614,57.2177,113.2065,96.533c20.0088,24.3965,41.7727,47.7399,69.1528,64.2383
	c32.6458-98.2881,142.8687-135.1462,237.8223-128.4766c14.3921,19.8331,28.7842,39.8417,43.3521,59.6749
	c28.7842-42.2991,40.3682-107.064,96.3572-121.8071c54.0586-20.5352,104.2556,18.6045,152.6975,36.507
	c-15.2695-30.8906-31.0659-61.4301-45.2827-92.6716c58.7974-7.0206,118.6479-9.1268,177.2698,0.1754
	c70.2058,10.7064,130.5829,51.9523,199.9115,66.3445c-63.0103-66.871-147.9594-104.4311-226.0631-149.7139
	c129.5298-19.3066,259.7614,0.3511,386.3073,28.2579c-56.6909-106.1862-183.939-123.0357-290.3007-141.6402
	c64.765-5.9674,128.652,7.1962,192.8903,8.9513c90.2148-40.1929,157.4365-124.9664,198.8577-213.0746
	c38.7891,45.9847,89.1616,76.3488,150.0652,82.4918c-26.3271,48.9686-68.6262,91.6186-74.9451,149.3629
	c2.4575,28.7844,6.3188,57.5687,11.584,86.1775c30.1887-43.352,65.6431-82.6673,107.2397-115.1374
	c2.2817,43.7031,3.1592,87.5816,7.5469,131.2848c34.2256-34.7519,65.2915-72.6629,98.2883-108.4679
	c5.0901,60.0259,3.51,120.0518,5.2654,180.2533c32.4702-45.9847,69.8547-90.0389,90.7412-142.8687
	C2792.877,431.8225,2779.5376,376.0088,2777.6072,320.8973z M1975.6813-230.3935c18.7803-28.2579,43.8787-51.0747,72.312-69.3284
	C2040.2706-261.6352,2016.4008-233.0263,1975.6813-230.3935z M1591.6666,403.6667L1502.9999,430l-18-25l160-16L1591.6666,403.6667z"
	/>
</svg>
