<?xml version="1.0" encoding="utf-8"?>
<!-- Generator: Adobe Illustrator 20.0.0, SVG Export Plug-In . SVG Version: 6.00 Build 0)  -->
<svg version="1.1" id="Layer_1" xmlns="http://www.w3.org/2000/svg" xmlns:xlink="http://www.w3.org/1999/xlink" x="0px" y="0px"
	 viewBox="0 0 120 50" style="enable-background:new 0 0 120 50;" xml:space="preserve">
<style type="text/css">
	.st0{fill:url(#SVGID_1_);stroke:#1D76BB;stroke-width:0.1392;}
	.st1{fill:url(#SVGID_2_);stroke:#1D76BB;stroke-width:0.1392;}
	.st2{fill:url(#SVGID_3_);stroke:#1D76BB;stroke-width:0.1392;}
	.st3{fill:url(#SVGID_4_);stroke:#1D76BB;stroke-width:0.1392;}
	.st4{fill:#FFFFFF;}
	.st5{fill:#E4F5FD;}
	.st6{fill:#B3DAF2;}
	.st7{fill:#548BC3;}
	.st8{fill:url(#SVGID_5_);}
	.st9{fill:url(#SVGID_6_);}
	.st10{fill:url(#SVGID_7_);}
	.st11{fill:url(#SVGID_8_);}
	.st12{fill:url(#SVGID_9_);}
	.st13{fill:#B0D1E9;}
	.st14{fill:url(#SVGID_10_);}
	.st15{fill:url(#SVGID_11_);}
	.st16{fill:url(#SVGID_12_);}
	.st17{fill:url(#SVGID_13_);}
	.st18{fill:url(#SVGID_14_);}
	.st19{fill:url(#SVGID_15_);}
	.st20{fill:url(#SVGID_16_);}
	.st21{fill:#B6D8F2;}
	.st22{fill:url(#SVGID_17_);}
	.st23{fill:#8AC2EA;}
	.st24{fill:url(#SVGID_18_);}
	.st25{fill:#6EADD4;}
	.st26{fill:url(#SVGID_19_);}
	.st27{fill:url(#SVGID_20_);}
	.st28{fill:#1C549C;}
	.st29{fill:#1C468F;}
	.st30{fill:url(#SVGID_21_);}
	.st31{fill:url(#SVGID_22_);}
	.st32{fill:url(#SVGID_23_);}
	.st33{fill:url(#SVGID_24_);}
	.st34{fill:url(#SVGID_25_);}
	.st35{fill:#5F9CC7;}
	.st36{fill:url(#SVGID_26_);}
	.st37{fill:url(#SVGID_27_);}
	.st38{opacity:0.75;}
	.st39{fill:url(#SVGID_28_);}
	.st40{fill:url(#SVGID_29_);}
	.st41{fill:url(#SVGID_30_);}
	.st42{fill:url(#SVGID_31_);}
	.st43{fill:url(#SVGID_32_);}
	.st44{fill:#A51E22;}
	.st45{fill:url(#SVGID_33_);}
	.st46{fill:url(#SVGID_34_);}
	.st47{fill:url(#SVGID_35_);}
	.st48{fill:url(#SVGID_36_);}
	.st49{fill:url(#SVGID_37_);}
	.st50{fill:url(#SVGID_38_);}
	.st51{fill:url(#SVGID_39_);}
	.st52{fill:url(#SVGID_40_);}
	.st53{fill:url(#SVGID_41_);}
	.st54{fill:url(#SVGID_42_);}
	.st55{fill:url(#SVGID_43_);}
	.st56{fill:url(#SVGID_44_);}
	.st57{fill:#225DA1;}
	.st58{fill:url(#SVGID_45_);}
	.st59{fill:url(#SVGID_46_);}
	.st60{fill:url(#SVGID_47_);}
	.st61{fill:url(#SVGID_48_);}
	.st62{fill:url(#SVGID_49_);}
	.st63{fill:url(#SVGID_50_);}
	.st64{fill:url(#SVGID_51_);}
	.st65{fill:url(#SVGID_52_);}
	.st66{fill:url(#SVGID_53_);}
	.st67{fill:url(#SVGID_54_);}
	.st68{fill:url(#SVGID_55_);}
	.st69{fill:url(#SVGID_56_);}
	.st70{fill:url(#SVGID_57_);}
	.st71{fill:url(#SVGID_58_);}
	.st72{fill:url(#SVGID_59_);}
	.st73{fill:url(#SVGID_60_);}
	.st74{fill:url(#SVGID_61_);}
	.st75{fill:url(#SVGID_62_);}
	.st76{fill:url(#SVGID_63_);}
	.st77{fill:url(#SVGID_64_);}
	.st78{fill:url(#SVGID_65_);}
	.st79{fill:url(#SVGID_66_);}
	.st80{fill:url(#SVGID_67_);}
	.st81{fill:url(#SVGID_68_);}
</style>
<g>
	<g>
		<linearGradient id="SVGID_1_" gradientUnits="userSpaceOnUse" x1="64.2126" y1="7.3397" x2="64.2126" y2="32.3489">
			<stop  offset="0" style="stop-color:#28A8E0"/>
			<stop  offset="1" style="stop-color:#1D76BB"/>
		</linearGradient>
		<path class="st0" d="M59.3,30.8l-1.1,1.6h-1.6v-25h3.1v8.5c0.3-0.4,0.8-0.8,1.7-1.1c0.8-0.3,1.6-0.5,2.4-0.5
			c2.4,0,4.3,0.8,5.8,2.5c1.5,1.7,2.2,3.7,2.2,6.3c0,2.9-0.7,5.2-2.2,6.9c-1.5,1.7-3.5,2.5-6.1,2.5c-0.8,0-1.6-0.2-2.4-0.5
			C60.3,31.6,59.7,31.2,59.3,30.8z M59.7,18.2v10.1c0,0.2,0.4,0.5,1.2,0.9c0.8,0.4,1.4,0.6,1.8,0.6c2.1,0,3.6-0.5,4.5-1.5
			c0.9-1,1.4-2.7,1.4-5.1c0-2-0.5-3.5-1.6-4.6c-1.1-1.1-2.5-1.7-4.3-1.7c-0.4,0-0.9,0.2-1.6,0.5C60.4,17.6,59.9,17.9,59.7,18.2z"/>
		<linearGradient id="SVGID_2_" gradientUnits="userSpaceOnUse" x1="78.5151" y1="7.3397" x2="78.5151" y2="32.3489">
			<stop  offset="0" style="stop-color:#28A8E0"/>
			<stop  offset="1" style="stop-color:#1D76BB"/>
		</linearGradient>
		<path class="st1" d="M75.5,27.1V7.3h3.1v19.2c0,0.9,0.3,1.7,0.8,2.2c0.5,0.5,1.2,0.8,2.1,0.8v2.8C77.5,32.3,75.5,30.6,75.5,27.1z"
			/>
		<linearGradient id="SVGID_3_" gradientUnits="userSpaceOnUse" x1="92.0741" y1="14.5156" x2="92.0741" y2="32.3489">
			<stop  offset="0" style="stop-color:#28A8E0"/>
			<stop  offset="1" style="stop-color:#1D76BB"/>
		</linearGradient>
		<path class="st2" d="M88.1,14.5v11.2c0,2.7,1.2,4.1,3.5,4.1c1,0,2-0.3,2.8-0.9c0.8-0.6,1.4-1.3,1.7-2V14.5h3.1V32h-3.1v-2.4
			c-0.3,0.7-1,1.3-2.1,1.9c-1.1,0.6-2.1,0.9-3.1,0.9c-1.9,0-3.4-0.6-4.4-1.7C85.5,29.6,85,28,85,26V14.5H88.1z"/>
		<linearGradient id="SVGID_4_" gradientUnits="userSpaceOnUse" x1="110.3407" y1="14.1887" x2="110.3407" y2="32.3489">
			<stop  offset="0" style="stop-color:#28A8E0"/>
			<stop  offset="1" style="stop-color:#1D76BB"/>
		</linearGradient>
		<path class="st3" d="M118.2,23.6h-12.6c0,2,0.6,3.6,1.7,4.7c1,1,2.3,1.4,3.8,1.4c1.8,0,3.3-0.5,4.4-1.6l1.3,2.2
			c-0.5,0.5-1.2,0.9-2.2,1.2c-1.2,0.5-2.6,0.7-4.2,0.7c-2.2,0-4.1-0.7-5.6-2.2c-1.7-1.6-2.6-3.9-2.6-6.6c0-2.9,0.9-5.2,2.6-6.9
			c1.6-1.6,3.4-2.3,5.6-2.3c2.5,0,4.5,0.7,5.9,2.1c1.4,1.4,2.1,3.1,2.1,5.4C118.4,22.4,118.3,23,118.2,23.6z M110.6,16.8
			c-1.4,0-2.5,0.4-3.5,1.3c-0.9,0.8-1.4,1.9-1.5,3.2h9.7c0-1.3-0.4-2.3-1.2-3.1C113.3,17.3,112.1,16.8,110.6,16.8z"/>
	</g>
	<g>
		<path class="st4" d="M43.3,39.5c-0.2,0.8-1.3,0.9-1.8,1.1c-0.5,0.2-2.3,1.1-2.5,1.9c-0.2,0.8-1.2,1.8-1.9,2.3
			c-0.7,0.5-1,0.9-2.2,1.7c0.8-0.3,2.9-1.5,3.5-2.1c0.6-0.6,0.8-1.6,1.5-2.1c0.6-0.5,1-0.9,1.7-1.2c0.7-0.2,0.7,0,1.3-0.5
			C43.3,40.1,43.3,40,43.3,39.5z"/>
		<path class="st4" d="M43.2,39.4c0,0,3.4-2,4.1-2.9c0.8-1.1-0.3-1.9-0.7-2.1c0.5,0.6,0.9,0.9,0.2,1.7
			C46.3,36.9,43.2,39.4,43.2,39.4z"/>
		<path class="st5" d="M46.3,36.9c-0.1,0-0.3,0.1-0.5,0.2c-1.1,1-2.6,2.3-2.6,2.3s2.3-1.3,3.5-2.3C46.6,37,46.5,36.9,46.3,36.9z"/>
		<path class="st4" d="M30.6,49.1c0,0-2.2,0.6-4.5,0c-2.3-0.7-4.2-2.3-4.7-2.7c1.9,1.2,3.3,2,4.9,2.4C27.9,49.1,30.6,49.1,30.6,49.1
			z"/>
		<path class="st4" d="M45.2,38.4c0,0-0.6,2.3-2,3.4c-1.4,1.1-3.1,1-3.5,0.9c1.5-0.3,2.5-0.6,3.4-1.4C44,40.5,45.2,38.4,45.2,38.4z"
			/>
		<path class="st4" d="M9.6,43.7c0,0-2.2,0.6-4.5,0c-2.3-0.7-2.9-1.8-2.6-2.6c0.2,1.2,1.2,1.9,2.8,2.3C6.9,43.7,9.6,43.7,9.6,43.7z"
			/>
		<path class="st6" d="M5.1,8.2c1.3-0.8,4.3-1.2,5.8-1.6c0.8-0.2,4.1-1,4.8-1.2c0.7-0.2,1-0.5,2.2-0.9c1.2-0.4,2.1,0,3.1-0.7
			c0.7-0.5,1.2-0.4,1.4-0.1c0.3,0.5,0,1.3,0,1.9c0,0.8,0.3,1.7,0.3,2.4c0,0.8-0.5,1.3-0.6,2c-0.1,0.9,0.5,1.6,0.6,2.5
			c0.1,0.6-0.1,1.3-0.1,1.9c0.1,0.7,0.1,1.6,0.1,2.4c0,0.9-0.2,1.7-0.3,2.5c-0.1,0.9,0.4,1.8,0.3,2.7c-0.1,1.9-0.1,3.8,0,5.8
			c0.1,0.4,0.2,1.5,0,1.9c-0.1,0.4-0.3,0.8-1,1.2c-1.1,0.5-1.7,0.9-2.7,1.6c-0.9,0.8-1.7,0.8-2.6,1.6c-0.3,0.3-1.2,0.6-1.7,0.9
			c-0.5,0.4-1.3,0.5-1.9,0.8c-1,0.6-2.3,1-3.3,1.7c-0.7,0.5-1,1-1.8,1.3C6.9,39,6.9,39.4,6.2,40c-0.3,0.3-1.5,1.1-1.9,0.6
			c-0.4-0.4,0.3-1.9-0.1-3.4c-0.5-1.5-0.3-3.2-0.3-4.4c0-0.9-0.1-2.9-0.5-3.8c-0.4-1-0.4-2.8-0.5-4c-0.1-1.2-0.1-2.3-0.2-3.5
			c-0.1-1.1,0.2-2.3,0-3.3c-0.2-1-0.7-1.8-0.6-3c0.1-0.9,0.2-2,0.3-2.9C2.4,10.7,3.8,8.9,5.1,8.2z"/>
		<path class="st6" d="M25.5,3.7C26.7,3.9,27.7,4,29,4c2.6,0,4.9,0.8,7.3,0.9c1.2,0.1,2.5,0,3.6,0.2c2,0.4,7,2.5,7,5
			c0,2.3-0.1,4.9-0.3,7.2c-0.2,2.3,0.3,4.3-0.2,6.5c-0.5,2.4-0.2,5.3-0.1,7.7c0,0.7,0.5,2.7-0.1,3.2c-0.4,0.3-2.1-0.1-2.8-0.4
			c-0.6-0.2-1.3-0.1-1.9-0.2c-0.7-0.1-1.3-0.4-2-0.5c-0.7-0.1-1.8-0.2-2.9-0.4c-1-0.2-1.8-0.6-2.4-0.7c-1.1-0.2-2.2-0.4-3-0.6
			c-1-0.3-1.6-0.6-3.1-0.9c-0.8-0.1-1.5-0.1-2.3-0.2c-0.6-0.1-1.2-0.5-1.8-0.6c-1.6-0.3-1.9-1.4-1.7-2.9c0.3-2.6-0.4-5.5-0.4-7.5
			c0-2,0.2-2.4,0.3-3.5c0-1.1,0.2-1.6,0-2.9c-0.1-0.5,0-0.9,0-1.4c-0.1-0.6,0.2-0.9,0-1.4C21.7,10,21.7,8.9,21.8,8
			c0-0.8,0.3-1.6,0.2-2.5c0-0.4-0.7-1.7-0.5-2C21.7,3.1,24.8,3.6,25.5,3.7z"/>
		<path class="st7" d="M4.7,40c1-1,2.8-1.6,3.2-2c0.5-0.5,2.1-1.1,2.6-1.4c1-0.5,1.7-0.9,3-1.7c1.2-0.9,2.4-0.7,3.5-1.7
			c0.5-0.5,0.5-0.6,1.2-0.9c0.6-0.3,1-0.6,1.6-0.9c0.5-0.3,1.8-1.8,3.3-1.7c0.5,0,1.1,0.1,2,0.3c0.5,0.1,1.1,0,1.7,0.1
			c1,0.2,1.6,0.6,2.3,0.8c0.5,0.1,1.7,0.2,2.5,0.4c1,0.3,3,0.8,4.2,1c0.9,0.2,2,0.6,2.8,0.7c1.1,0.2,1.6,0,2.8,0.3
			c0.7,0.1,2.2,0.7,2.9,0.9c0.8,0.2,1.8,0.2,1.8,0.6c-0.1,1.4-4.9,4.9-5.9,5.6c-2.7,1.9-6.5,6.2-10,6.5c-1.9,0.2-3.8-0.7-5.5-1.4
			c-2-0.8-4-1.5-6.1-2c-0.5-0.1-3.7-0.2-4.6-0.4c-0.7-0.2-4.2-1.4-5.3-1.6c-1.1-0.2-2.2-0.1-3.3-0.3C5.2,41.2,3.7,41,4.7,40z"/>
		<path class="st6" d="M4.2,8.9c0.7-0.7,2.4-1.8,7.9-2.7c1.4-0.1,2.3-0.2,3.6-0.9c0.7-0.4,1.7-0.8,2.4-1c0.7-0.2,2.5-1.1,3.9-0.9
			c4.6,0.5,9.5,1.1,14.1,1.5C38.6,5.1,40,4.8,43,6.2c1.1,0.5-3.3,2.4-5.5,3.5c-2.1,1-4.1,2.4-6.3,3.2c-4.5,1.5-9.4-0.4-13.9-1.2
			C13,10.8,8.6,10.3,4.3,9.9C3.7,9.8,3.6,9.5,4.2,8.9z"/>
		<radialGradient id="SVGID_5_" cx="22.7682" cy="29.6698" r="21.2394" gradientUnits="userSpaceOnUse">
			<stop  offset="0" style="stop-color:#548BC3"/>
			<stop  offset="1" style="stop-color:#225DA1"/>
		</radialGradient>
		<path class="st8" d="M44.7,34.7c2,0.1-0.2,1.7,0,1.7c1.9-0.9,1.7-3.1,1.5-4.6c-0.1-0.4,0,3.4-1.9,2.4c-0.6-0.3-2.2-0.7-2.9-0.9
			c-1.2-0.2-1.7-0.1-2.8-0.3c-0.8-0.1-1.9-0.5-2.8-0.7c-1.2-0.2-3.2-0.8-4.2-1c-0.7-0.2-2-0.3-2.5-0.4c-0.7-0.2-1.3-0.6-2.3-0.8
			c-0.7-0.2-1.2,0-1.7-0.1c-0.9-0.2-1.6-0.3-2-0.3c-0.1,0-0.2,0-0.3,0c0.3,0.3,0.7,0.5,1.2,0.6c0.6,0.1,1.2,0.5,1.8,0.6
			c0.8,0.2,1.5,0.1,2.3,0.2c1.4,0.3,2,0.6,3.1,0.9c0.8,0.2,1.9,0.4,3,0.6c0.7,0.1,1.5,0.5,2.4,0.7c1,0.2,2.2,0.2,2.9,0.4
			c0.6,0.1,1.3,0.4,2,0.5c0.7,0.1,1.3,0,1.9,0.2C43.6,34.5,44.2,34.6,44.7,34.7z"/>
		<radialGradient id="SVGID_6_" cx="22.7686" cy="29.6695" r="21.2386" gradientUnits="userSpaceOnUse">
			<stop  offset="0" style="stop-color:#548BC3"/>
			<stop  offset="1" style="stop-color:#225DA1"/>
		</radialGradient>
		<path class="st9" d="M21.8,30.8c0.7-0.4,0.9-0.8,1-1.2c0,0,0,0,0,0c-1.4,0.1-2.5,1.4-3,1.7c-0.6,0.3-1,0.7-1.6,0.9
			c-0.7,0.3-0.7,0.4-1.2,0.9c-1.1,1-2.2,0.9-3.5,1.7c-1.2,0.9-2,1.2-3,1.7c-0.6,0.3-2.1,1-2.6,1.4c-0.4,0.3-2,0.4-2.6,1.4
			c-0.4,0.7-0.9-1.9-0.9-1.7c-0.3,2.5-0.7,3.5,2.2,3.3c0.4,0-2.3-0.5-0.4-1.2c0.9-0.3,0.7-0.9,1.6-1.2c0.8-0.3,1.1-0.8,1.8-1.3
			c1-0.7,2.2-1.1,3.3-1.7c0.6-0.3,1.4-0.4,1.9-0.8c0.4-0.3,1.3-0.6,1.7-0.9c0.9-0.9,1.7-0.9,2.6-1.6C20,31.7,20.6,31.4,21.8,30.8z"
			/>
		
			<linearGradient id="SVGID_7_" gradientUnits="userSpaceOnUse" x1="67.3532" y1="-115.4956" x2="56.7121" y2="-99.2018" gradientTransform="matrix(0.4946 -0.8691 0.8691 0.4946 78.1944 127.677)">
			<stop  offset="0" style="stop-color:#FFFFFF"/>
			<stop  offset="1" style="stop-color:#B3DAF2"/>
		</linearGradient>
		<path class="st10" d="M28.8,18.6c-1.9,3.3-10.8,4.2-11.3,7.2c-0.4,3,0.4,6.8-1.6,6.8c-2.1,0-3.3,0.6-5.9,1.6
			C4.9,36.1,1,14.4,8.1,13.8C15.7,13.3,30.6,15.3,28.8,18.6z"/>
		<radialGradient id="SVGID_8_" cx="23.2641" cy="29.6981" r="22.3443" gradientUnits="userSpaceOnUse">
			<stop  offset="0" style="stop-color:#548BC3"/>
			<stop  offset="1" style="stop-color:#225DA1"/>
		</radialGradient>
		<path class="st11" d="M23.5,20.6c0.2,1.9,0.1,4.3,0.8,6.1c0.7,1.8,3.3,3,3.6,4.1c-0.9,0.7-4.9-1.5-5.1-0.5c-2.5,0.1-2,1.5-4.1,2.6
			c-0.6-0.3,2.6-6.2,2.8-6.9c1-2.6-1.1-16.4,0.6-18.6C23.6,5.5,23.3,19.2,23.5,20.6z"/>
		<linearGradient id="SVGID_9_" gradientUnits="userSpaceOnUse" x1="31.5426" y1="36.704" x2="45.89" y2="36.704">
			<stop  offset="0" style="stop-color:#225DA1"/>
			<stop  offset="0.3173" style="stop-color:#3168AA"/>
			<stop  offset="0.9706" style="stop-color:#5289C2"/>
			<stop  offset="1" style="stop-color:#548BC3"/>
		</linearGradient>
		<path class="st12" d="M44.6,34.3c-2,0.7-3.9-2.3-4.9-6.2c-0.5,0.4-0.8,0.6-0.9,0.6c-1.8,0.3-3.6,2.9-6,2.5
			c-2.3-0.4-0.6,8.1-0.7,12.7c-0.2,3.9,1.8-0.9,12.8-8.7c0.7-0.5,1-0.7,1.1-1.5C45.5,33.9,45,34.1,44.6,34.3z"/>
		<path class="st13" d="M23.5,20.6c-0.1-0.5-0.1-2.9-0.1-5.5c-0.6-0.1-1.2-0.3-1.8-0.4c0.1,2.7,0.3,5.7,0.3,7.9
			c0.6-0.2,1.1-0.5,1.7-0.7C23.5,21.5,23.5,21,23.5,20.6z"/>
		<linearGradient id="SVGID_10_" gradientUnits="userSpaceOnUse" x1="19.0486" y1="6.472" x2="18.4893" y2="10.3871">
			<stop  offset="0" style="stop-color:#FFFFFF"/>
			<stop  offset="1" style="stop-color:#B3DAF2"/>
		</linearGradient>
		<path class="st14" d="M17.1,6.6c-3,0-4.9-0.7-5.6,0.7c-1.9,3.9-5.6,1.2-6.1,2c-0.5,0.8,3.1,0.6,5,0.7c4.1,0.2,8.2,1.4,12.2,1
			c3.4-0.3,9.5-1.1,9.2-2.4c-0.3-1.2-7.4-2.4-6.8-1.6c0.6,0.9,0.8,1,0,1.8C24.3,9.6,17.9,6.6,17.1,6.6C15.9,6.6,18.5,6.6,17.1,6.6z"
			/>
		<path class="st13" d="M23,8.7c-0.4-0.1-0.8-0.2-1.2-0.4c-0.2,0.7-0.3,1.7-0.3,2.9c0.4,0,0.8,0,1.2-0.1c0.2,0,0.3,0,0.5-0.1
			C23.2,10.1,23.1,9.3,23,8.7z"/>
		<linearGradient id="SVGID_11_" gradientUnits="userSpaceOnUse" x1="25.2242" y1="6.1939" x2="25.5502" y2="4.6452">
			<stop  offset="0" style="stop-color:#FFFFFF"/>
			<stop  offset="1" style="stop-color:#B3DAF2"/>
		</linearGradient>
		<path class="st15" d="M15.6,6.2c2.2,0.2,3.8-2.7,8-0.9c2.4,1,3.5,1.9,5.9,1.9c2.3,0,5.7,0.4,5.7-0.8c0-1.2-2.7,0.4-2.7-0.4
			c0-0.8,1.1-0.5,1.3-0.9c0.2-0.4-11.6-1.7-12.3-1.6C19.2,3.7,13.5,6,15.6,6.2z"/>
		<linearGradient id="SVGID_12_" gradientUnits="userSpaceOnUse" x1="35.5392" y1="6.0143" x2="39.8962" y2="6.0143">
			<stop  offset="0" style="stop-color:#FFFFFF"/>
			<stop  offset="1" style="stop-color:#B3DAF2"/>
		</linearGradient>
		<path class="st16" d="M39.8,5.9c-0.7-1.5-4.6-0.7-4.2,0.3C36,7.2,40.6,7.4,39.8,5.9z"/>
		<linearGradient id="SVGID_13_" gradientUnits="userSpaceOnUse" x1="18.2618" y1="6.855" x2="25.0837" y2="6.855">
			<stop  offset="0" style="stop-color:#FFFFFF"/>
			<stop  offset="1" style="stop-color:#B3DAF2"/>
		</linearGradient>
		<path class="st17" d="M25.1,7.6c0-1.7-6.6-2.8-6.8-1.7C18,7.1,25.1,9.3,25.1,7.6z"/>
		<path class="st13" d="M22.9,8.1c-0.2-0.8-0.4-1.2-0.7-0.8c-0.1,0.1-0.2,0.3-0.3,0.6C22.3,8,22.6,8.1,22.9,8.1z"/>
		
			<linearGradient id="SVGID_14_" gradientUnits="userSpaceOnUse" x1="44.3741" y1="49.0127" x2="36.1326" y2="61.6324" gradientTransform="matrix(0.9534 0.1325 -0.1376 0.9905 9.7214 -43.4896)">
			<stop  offset="0" style="stop-color:#FFFFFF"/>
			<stop  offset="1" style="stop-color:#B3DAF2"/>
		</linearGradient>
		<path class="st18" d="M43.3,23.9c-2.3-0.3-2-5.5-3.8-5.1c-1.9,0.5-4.9,4.5-5.4,3.2c-0.5-1.2,1-3-1.2-5.7
			c-2.2-2.6,9.5-10.3,11.5-6.1C46.4,14.7,45.7,24.2,43.3,23.9z"/>
		<linearGradient id="SVGID_15_" gradientUnits="userSpaceOnUse" x1="31.7582" y1="33.1763" x2="45.9174" y2="33.1763">
			<stop  offset="0" style="stop-color:#225DA1"/>
			<stop  offset="0.5337" style="stop-color:#1E5298"/>
			<stop  offset="1" style="stop-color:#1C468F"/>
		</linearGradient>
		<path class="st19" d="M31.8,32.1c0.7,0.2,1.6,0.3,2.4,0.5c0.7,0.1,1.5,0.5,2.4,0.7c1,0.2,2.2,0.2,2.9,0.4c0.6,0.1,1.3,0.4,2,0.5
			c0.7,0.1,1.3,0,1.9,0.2c0.3,0.1,0.9,0.3,1.4,0.4c0.3,0,0.4,0.1,0.6,0.1c0.4-0.4,0.6-0.7,0.6-1.5c-0.2,0.7-0.7,1.4-1.6,0.9
			c-0.6-0.3-2.2-0.7-2.9-0.9c-1.2-0.2-1.7-0.1-2.8-0.3c-0.8-0.1-1.9-0.5-2.8-0.7c-1-0.2-2.6-0.6-3.7-0.9
			C31.9,31.6,31.8,31.9,31.8,32.1z"/>
		<linearGradient id="SVGID_16_" gradientUnits="userSpaceOnUse" x1="31.7117" y1="41.3916" x2="21.8229" y2="41.3916">
			<stop  offset="0" style="stop-color:#225DA1"/>
			<stop  offset="0.3173" style="stop-color:#3168AA"/>
			<stop  offset="0.9706" style="stop-color:#5289C2"/>
			<stop  offset="1" style="stop-color:#548BC3"/>
		</linearGradient>
		<path class="st20" d="M30,37.3c-1.2,0.1-9.3-0.8-7.6,1.9c0.7,1.1,1.8,1.2,0.7,2.5c-0.7,0.8-2.1,1.4-0.6,2.1
			c1.3,0.6,2.8,0.6,4.1,1.1c1.2,0.4,2.9,0.6,4.2,0.6C31.9,45.5,32.4,37.1,30,37.3z"/>
		<path class="st21" d="M24,28.5c0.5,0.4,0.8,0.9,1.1,1.5c-1.2-0.3-1.2-1.3-2.7-1.3c-0.2,0.6-1.4,1.1-1.8,1c1-2.3,1.5-2.2,1.7-4.7
			c0.2-2.3,0.2-5.4,0.3-7.6C23.5,20.1,22.2,25.6,24,28.5C24.3,29.1,23.1,27.2,24,28.5z"/>
		<linearGradient id="SVGID_17_" gradientUnits="userSpaceOnUse" x1="31.5264" y1="41.5492" x2="25.4518" y2="41.5492">
			<stop  offset="0" style="stop-color:#225DA1"/>
			<stop  offset="0.5337" style="stop-color:#1E5298"/>
			<stop  offset="1" style="stop-color:#1C468F"/>
		</linearGradient>
		<path class="st22" d="M25.9,42.8c-1.5,1.8,1.6,2,2.9,2.1c1.4,0,2.6,0.1,2.6-0.8c0-1.6,0.5-3.9-0.2-4.6c-1-1-2.5-1.7-3.9-1.1
			C27.3,38.4,27.2,41.2,25.9,42.8z"/>
		<path class="st23" d="M4.5,35.2c0-3.3-2.5-12.1-1-12.1c0.2,0,0.5,6.6,2.1,10.4c1.2,2.9,2.7,4.4,3.6,5.6c2.1,2.8,10.4,2.3,10.6,3.8
			c0.2,1.5-8.4-1.1-9.5-1.2C6.1,41.2,4.4,40.4,4.5,35.2z"/>
		<linearGradient id="SVGID_18_" gradientUnits="userSpaceOnUse" x1="19.7339" y1="40.643" x2="5.256" y2="40.643">
			<stop  offset="0" style="stop-color:#548BC3"/>
			<stop  offset="0.4858" style="stop-color:#5B99CB"/>
			<stop  offset="1" style="stop-color:#64ABD5"/>
		</linearGradient>
		<path class="st24" d="M19.7,42.9c-0.2-1.5-8.5-1.1-10.6-3.8c-0.3-0.4-0.6-0.8-1-1.2C8.1,37.9,8,38,7.9,38.1
			c-0.4,0.3-1.7,0.8-2.7,1.5c0.6,1,1.6,1.6,3.1,1.9c0.2,0,0.3,0,0.5,0.1c0.1,0,0.1,0,0.2,0.1c0.4,0.1,0.7,0.1,1.2,0.2
			C11.4,41.9,19.9,44.4,19.7,42.9z"/>
		<path class="st25" d="M5.3,39.6c0.1,0.2,0.3,0.4,0.5,0.6C5.8,40.1,6,40.1,6.2,40c0.9-0.3,0.7-0.9,1.6-1.2c0.3-0.1,0.6-0.3,0.8-0.4
			c-0.1-0.2-0.2-0.3-0.4-0.5C8.1,37.9,8,38,7.9,38.1C7.6,38.4,6,38.5,5.3,39.6C5.3,39.6,5.3,39.6,5.3,39.6z"/>
		<linearGradient id="SVGID_19_" gradientUnits="userSpaceOnUse" x1="30.8443" y1="34.7255" x2="23.4492" y2="34.7255">
			<stop  offset="0" style="stop-color:#225DA1"/>
			<stop  offset="0.3173" style="stop-color:#3168AA"/>
			<stop  offset="0.9706" style="stop-color:#5289C2"/>
			<stop  offset="1" style="stop-color:#548BC3"/>
		</linearGradient>
		<path class="st26" d="M29.4,36.1c-0.9-0.1-2.3,0-3.2,0.1c-0.8,0.1-2,0.5-2.7,0.2c-0.2-1.8,3-2.7,4-3.4c0.6-0.4,2.2,0.3,2.9,0.3
			C31.2,33.4,31,36.3,29.4,36.1z"/>
		<linearGradient id="SVGID_20_" gradientUnits="userSpaceOnUse" x1="4.844" y1="38.5843" x2="16.9389" y2="38.5843">
			<stop  offset="0" style="stop-color:#D5EAF8"/>
			<stop  offset="1" style="stop-color:#B3DAF2"/>
		</linearGradient>
		<path class="st27" d="M6.7,40.1c3.4,1.5,11.5,3.7,10.1,2.3c-1.5-1.5-10.3,1-11.9-8C5.1,36.1,4.1,38.9,6.7,40.1z"/>
		<path class="st28" d="M3.2,10.1c0.7-0.7,1.5-2,3.1-2.2c0.4-0.1-1.7,2-0.9,2.3c2,0.8,9.4,1.4,14.9,1.7c2.9,0.2,7-0.7,8.7,0
			c1.3,0.5,8.5-3.2,12.6-4.6c1.8-0.6-1.2-1.8-0.8-1.9c0.9-0.2,3.3,1.3,3.5,1.6c2,1.7,2.8,0.9,2.3,7.1c-0.2,2.5,1-7.4-4.6-5.5
			c-3.4,1.1-9.5,2.4-10.3,5.6c-0.3,1.1,0.6,8.3-0.1,16.1c-0.5,5.7,0.3,11.7,0,14.6c-0.2,1.7,3-0.8,2.9-0.5c-0.1,0.7-2.4,2.2-3.5,2.4
			c-1.2,0.2-1.5,0.2-4-0.6c-0.3-0.1,4.5,0.5,4.1-1.3C31,43.6,31.1,41.8,31,40c-0.3-6.4-0.3-15.1-0.3-16.3c-0.3-6.1-0.6-9.5-6.9-10.6
			c-6.1-1-9.9-0.5-15.9-1.5c-3.3-0.7-5.7,2.2-5.1,6.3C2.7,18,1.4,12,3.2,10.1z"/>
		<path class="st29" d="M31.5,33.6c-0.2,0-0.5,0-0.7,0c0,1.1,0,2.2,0.1,3.3c0.2,0.2,0.4,0.4,0.6,0.6C31.5,36.1,31.5,34.9,31.5,33.6z
			"/>
		<path class="st29" d="M31.2,39.5c-0.1-0.1-0.1-0.1-0.2-0.2c0,0.2,0,0.4,0,0.6c0.1,1.7,0,3.4,0.2,4.6c0.2-0.1,0.3-0.1,0.5-0.2
			c0.1-1.1,0-2.7-0.1-4.4C31.5,39.8,31.3,39.7,31.2,39.5z"/>
		
			<radialGradient id="SVGID_21_" cx="10.041" cy="65.8316" r="5.6681" gradientTransform="matrix(1 0 0 0.5562 0 -25.1394)" gradientUnits="userSpaceOnUse">
			<stop  offset="0" style="stop-color:#B7DFF7"/>
			<stop  offset="1" style="stop-color:#71A4D4"/>
		</radialGradient>
		<path class="st30" d="M16.8,11.8c-4-0.2-6.6-0.7-10.7-0.9c-2.1-0.1-1.4-0.7-1.9-0.6c-1.5,0.3-3.2,4-0.2,1.6
			c1.2-0.9,12.9,0.7,13.6,0.4C18.2,11.8,16.8,11.8,16.8,11.8z"/>
		
			<radialGradient id="SVGID_22_" cx="-52.7562" cy="205.5485" r="4.1491" gradientTransform="matrix(0.865 0.1719 -0.1672 0.8413 107.5018 -148.639)" gradientUnits="userSpaceOnUse">
			<stop  offset="0" style="stop-color:#B7DFF7"/>
			<stop  offset="1" style="stop-color:#71A4D4"/>
		</radialGradient>
		<path class="st31" d="M24.7,12c1.2,0.2,2.7,0.2,4.7,1.7c1.6,1.2,2.5,5.9,1.5,4.8c-0.6-0.7-0.4-2.8-1.9-3.9c-1.6-1.1-4.4-1.8-5-2
			C23.5,12.4,23.2,11.8,24.7,12z"/>
		
			<radialGradient id="SVGID_23_" cx="37.4704" cy="-23.4122" r="7.2213" gradientTransform="matrix(1.0017 -4.590000e-02 3.950000e-02 0.8631 0.5781 33.2124)" gradientUnits="userSpaceOnUse">
			<stop  offset="0" style="stop-color:#B7DFF7"/>
			<stop  offset="1" style="stop-color:#71A4D4"/>
		</radialGradient>
		<path class="st32" d="M42.7,7c-0.5,0.1,0.1,0.3-1.9,1.1c-1.1,0.5-6.5,2.4-8.1,3.1c-1.6,0.8-2.6,1-4.4,1c-0.7,0,1.5,0.7,3,3.4
			c-0.9-3.5,3.2-4.8,6.2-5.6c0.8-0.2,2.7-0.7,4-1.3c2.4-1.1,4.4,1.5,4.6,1.2C47,9,43.5,6.9,42.7,7z"/>
		
			<radialGradient id="SVGID_24_" cx="-832.7508" cy="27.8698" r="6.4604" gradientTransform="matrix(0.4906 0 0 1 439.679 0)" gradientUnits="userSpaceOnUse">
			<stop  offset="0" style="stop-color:#B7DFF7"/>
			<stop  offset="1" style="stop-color:#71A4D4"/>
		</radialGradient>
		<path class="st33" d="M31.5,28.6c-0.2,2.5,0.1,8.4-0.3,8.4c-0.3,0-0.3-5-0.3-9.5c0-4-0.5-7.9-0.1-8.5
			C31.7,17.6,31.6,25.6,31.5,28.6z"/>
		<path class="st4" d="M9.3,11.5c0.2,0.1-2-0.1-3.7-0.2c-2-0.1-2.5,1.3-2.7,1C2.3,10.6,8.3,11,9.3,11.5z"/>
		<path class="st4" d="M29.1,14c0.1,0.1-1.8-0.8-3.3-1.1c-0.8-0.2-1.5-0.2-1.6-0.3C23.9,11.8,28.3,13,29.1,14z"/>
		<path class="st4" d="M17.1,12c0.4-0.2-5.9-0.8-5.6-0.5c0.3,0.3,2.5,0.2,3.3,0.4C15.6,12,16.5,12.3,17.1,12z"/>
		<path class="st4" d="M42.9,7.7c0.3,0.3-6.4,2.6-6.6,2.4c-0.2-0.2,1.9-1,2.6-1.1C39.5,9,42.6,7.4,42.9,7.7z"/>
		<path class="st4" d="M31.3,12.9c0.6-1.6,4.4-2.4,4.1-2.3c-2.8,0.5-4.3,1.2-4.9,3.2C30.3,14.3,30.6,14.6,31.3,12.9z"/>
		<path class="st4" d="M28,9.4c-2.1,0.8-7.3,0.5-6.7,0.5c5.4,0.7,10.8,0.3,8.4-2C28.5,6.8,30.4,8.5,28,9.4z"/>
		<path class="st4" d="M38.9,7.2c-2.1,0.8-7.3,0.5-6.7,0.5c5.4,0.7,10.8,0.3,8.4-2C39.4,4.6,41.3,6.3,38.9,7.2z"/>
		<path class="st4" d="M19.9,6.6c0.9,0.7,3.4,1.3,3,1.2c-2.6-0.4-5.1-1.4-3.6-2.1C20,5.4,18.9,5.9,19.9,6.6z"/>
		<path class="st4" d="M21.5,4.3c1.8,0.3,5.2,2.3,4.8,2c-3.4-2.3-6.3-3-6.6-1.6C20,4.5,20.2,4.1,21.5,4.3z"/>
		<path class="st4" d="M41.7,13.3c2.2,2.6,2.1,8.3,2.2,7.6c1.1-5.8,0.6-13.3-6.1-9.9C35.3,12.2,39.1,10.4,41.7,13.3z"/>
		<path class="st4" d="M9.6,17.8c4.2-2.6,13.9-1.8,12.7-2c-9.9-2-20.1-0.3-16.5,6.7C7.7,25.9,4.8,20.8,9.6,17.8z"/>
		<linearGradient id="SVGID_25_" gradientUnits="userSpaceOnUse" x1="24.6813" y1="18.6486" x2="24.6813" y2="46.3064">
			<stop  offset="0" style="stop-color:#FFFFFF"/>
			<stop  offset="1" style="stop-color:#B6D8F2"/>
		</linearGradient>
		<path class="st34" d="M23.3,44.7c-2.2-0.7-4.8-1.7-4-1.7c3.3,0.2,5.7,4,8.9-0.7c1.7-2.4,1.1-24.7,1.3-22.6c0.6,6,1.8,24.8-1.2,26
			C27.8,46,25.4,45.4,23.3,44.7z"/>
		<path class="st35" d="M28.2,42.4c-3.2,4.7-5.6,0.9-8.9,0.7c-0.8,0,1.9,1,4,1.7c2.1,0.7,4.5,1.2,5,1c1.8-0.7,2.1-7.8,1.9-14.7
			c-0.3,0-0.6-0.1-0.9-0.1C29.2,36.1,28.9,41.3,28.2,42.4z"/>
		<path class="st7" d="M29.1,36.1c0.1,0,0.2,0,0.2,0c0.4,0,0.6-0.1,0.9-0.2c0-0.8,0-1.7,0-2.6c-0.3,0-0.6-0.1-1-0.2
			C29.2,34.1,29.2,35.2,29.1,36.1z"/>
		<radialGradient id="SVGID_26_" cx="28.0916" cy="41.5928" r="2.7333" gradientUnits="userSpaceOnUse">
			<stop  offset="0" style="stop-color:#548BC3"/>
			<stop  offset="0.2324" style="stop-color:#5288C1"/>
			<stop  offset="0.4569" style="stop-color:#4B81BC"/>
			<stop  offset="0.6782" style="stop-color:#3F75B3"/>
			<stop  offset="0.8963" style="stop-color:#2D66A7"/>
			<stop  offset="1" style="stop-color:#225DA1"/>
		</radialGradient>
		<path class="st36" d="M29,38.3c-0.2,2-0.4,3.5-0.8,4c-0.7,1.1-1.4,1.7-2.1,2c0.7,0.4,2,0.5,2.7,0.5c0.1,0,0.2,0,0.4,0
			c0.6-1.2,0.9-3.4,1.1-6.1C29.8,38.6,29.4,38.4,29,38.3z"/>
		<path class="st4" d="M31.1,24.8c-0.1-2.3-0.3-4.4,0-4.2c0.5,0.5,0.4,10.2,0.2,9.7C31.1,30.1,31.2,27.3,31.1,24.8z"/>
		<path class="st4" d="M31.2,32.6c0.1-0.6,0.2,2.7,0.1,3.1C31.1,36.1,30.9,33.6,31.2,32.6z"/>
		<path class="st4" d="M25.3,11.1c1.7,0,4.9-0.5,5.6-0.7c1.2-0.3,5.7-1.7,7.3-2.4c1.6-0.7-6.1,2.9-7.4,3.2
			C29.5,11.5,25.3,11.1,25.3,11.1z"/>
		<linearGradient id="SVGID_27_" gradientUnits="userSpaceOnUse" x1="9.9371" y1="36.4033" x2="26.8802" y2="36.4033">
			<stop  offset="0" style="stop-color:#225DA1"/>
			<stop  offset="0.3173" style="stop-color:#3168AA"/>
			<stop  offset="0.9706" style="stop-color:#5289C2"/>
			<stop  offset="1" style="stop-color:#548BC3"/>
		</linearGradient>
		<path class="st37" d="M15.7,35.4c-1.2,0.4-2.2,1.2-3.5,1.5c-0.9,0.2-2.7,0.4-2.2,1.8c0.4,1,2.3,0.9,3.1,0.5
			c2.4-0.1,3.2,2.2,3.9,2.4c0.6,0.2,1.4-0.1,2,0c0.7,0.1,1.4,0.3,2.1,0.3c0.6,0,1.4,0.1,1.5-0.7c0.1-0.8-1.2-1.1-1.6-1.5
			c-0.7-0.6-0.6-0.9-0.2-1.6c0.4-0.6,0.5-1.1,0.8-1.8c0.7-1.8,2.4-2,3.7-3.1c0.7-0.1,1.3-0.5,1.4-1.1c0-0.1,0-0.1,0-0.1
			C23.5,28.4,18.9,34.2,15.7,35.4z"/>
		<g class="st38">
			
				<linearGradient id="SVGID_28_" gradientUnits="userSpaceOnUse" x1="80.4149" y1="9.6155" x2="78.7174" y2="11.5376" gradientTransform="matrix(0.8614 -0.7349 0.4974 0.7729 -52.0832 71.6201)">
				<stop  offset="0" style="stop-color:#FFCD71"/>
				<stop  offset="0.5333" style="stop-color:#EB2227"/>
				<stop  offset="1" style="stop-color:#971B1E"/>
			</linearGradient>
			<path class="st39" d="M21.9,25.6c-1.7-3,0.4-4.8-0.2-6.6c0,1.3-0.6,1.6-1,2.6C20.4,22.5,20.6,24.7,21.9,25.6"/>
			
				<linearGradient id="SVGID_29_" gradientUnits="userSpaceOnUse" x1="84.0643" y1="8.7382" x2="78.375" y2="24.4001" gradientTransform="matrix(0.8614 -0.7349 0.4974 0.7729 -52.0832 71.6201)">
				<stop  offset="0" style="stop-color:#A51E22"/>
				<stop  offset="1" style="stop-color:#250D0E"/>
			</linearGradient>
			<path class="st40" d="M24.2,15c-0.3,2.8,2.8,6.3,3.4,12.1c0.8,4.3-0.9,7.8-0.9,7.8s0.3-8.3-1.6-12C23.3,19.1,23.7,15.9,24.2,15z"
				/>
			
				<linearGradient id="SVGID_30_" gradientUnits="userSpaceOnUse" x1="78.7338" y1="7.7651" x2="78.7338" y2="24.5727" gradientTransform="matrix(0.8614 -0.7349 0.4974 0.7729 -52.0832 71.6201)">
				<stop  offset="0" style="stop-color:#FFC113"/>
				<stop  offset="0.4606" style="stop-color:#EB2227"/>
				<stop  offset="1" style="stop-color:#BC2026"/>
			</linearGradient>
			<path class="st41" d="M24.4,39.2c4-5.1,4-11.9,1.6-15.9c-2.7-4.5-1.9-7.4-1.8-8.3c-1.8,3.6-2.3,9.3-0.6,13.8
				C25.8,34.7,24.4,39.2,24.4,39.2z"/>
			
				<linearGradient id="SVGID_31_" gradientUnits="userSpaceOnUse" x1="79.8734" y1="20.448" x2="77.4761" y2="20.448" gradientTransform="matrix(0.8614 -0.7349 0.4974 0.7729 -52.0832 71.6201)">
				<stop  offset="0" style="stop-color:#DD1F26"/>
				<stop  offset="0.2982" style="stop-color:#CD1F25"/>
				<stop  offset="0.8355" style="stop-color:#A91D22"/>
				<stop  offset="1" style="stop-color:#9D1C20"/>
			</linearGradient>
			<path class="st42" d="M23.6,23.3c0.5-0.5,2,1.2,2.6,4.6c0.6,3.4-0.1,7.6-1.8,11c0.5-5.3-0.3-8.8-0.6-10.5
				C23.6,26.8,24.1,24.1,23.6,23.3z"/>
			
				<linearGradient id="SVGID_32_" gradientUnits="userSpaceOnUse" x1="74.099" y1="18.3857" x2="77.4884" y2="19.1433" gradientTransform="matrix(0.8614 -0.7349 0.4974 0.7729 -52.0832 71.6201)">
				<stop  offset="0" style="stop-color:#F8B7A1"/>
				<stop  offset="0.6485" style="stop-color:#EB202A"/>
			</linearGradient>
			<path class="st43" d="M24.4,39.2c1.9-4.3,1.1-8.5-0.4-10.5c-1.5-2-3.6-4.7-3.3-7c-1.1,2.8-1.2,5.6,1,8.6
				C23.2,32.2,24.9,36.2,24.4,39.2z"/>
			<path class="st44" d="M21.7,30.3c-0.7-1-1.2-1.9-1.5-2.8c0,0,0,0,0,0c-0.6,0.5-0.9,1.1-0.9,1.6c-0.1,1.3,4.1,2.7,5.1,10.2
				C24.9,36.2,23.2,32.2,21.7,30.3z"/>
			
				<linearGradient id="SVGID_33_" gradientUnits="userSpaceOnUse" x1="74.5354" y1="15.0232" x2="74.5354" y2="24.6126" gradientTransform="matrix(0.8614 -0.7349 0.4974 0.7729 -52.0832 71.6201)">
				<stop  offset="0" style="stop-color:#A51E22"/>
				<stop  offset="1" style="stop-color:#250D0E"/>
			</linearGradient>
			<path class="st45" d="M19.3,29c-0.1,1.2,3.3,2,4.6,7.9c0.1,0.2,0.3,0.8,0.3,0.9c0-1.8-1-4.9-2.6-6.7c-1.6-1.8-2.2-2.8-1.4-3.7
				C19.7,27.9,19.4,28.6,19.3,29z"/>
			
				<linearGradient id="SVGID_34_" gradientUnits="userSpaceOnUse" x1="72.9669" y1="21.3651" x2="74.6597" y2="21.3651" gradientTransform="matrix(0.8614 -0.7349 0.4974 0.7729 -52.0832 71.6201)">
				<stop  offset="0" style="stop-color:#F8B7A1"/>
				<stop  offset="0.6485" style="stop-color:#EB202A"/>
			</linearGradient>
			<path class="st46" d="M24.4,39.2c-0.3-7.4-4.6-8.4-5.1-10.2c0,0-0.5,1.9,1.7,4.4C23.2,36,24,37.2,24.4,39.2z"/>
			
				<linearGradient id="SVGID_35_" gradientUnits="userSpaceOnUse" x1="81.0449" y1="9.4522" x2="81.0449" y2="13.3561" gradientTransform="matrix(0.8614 -0.7349 0.4974 0.7729 -52.0832 71.6201)">
				<stop  offset="0" style="stop-color:#FFDD91"/>
				<stop  offset="1" style="stop-color:#EB2227"/>
			</linearGradient>
			<path class="st47" d="M23,21.5c-0.1,0.9,0.1,1.9,0.7,1.8c-0.5-1.3,0.2-3.5-0.1-4.7C23.6,19.1,23.1,20.3,23,21.5z"/>
			
				<linearGradient id="SVGID_36_" gradientUnits="userSpaceOnUse" x1="80.12" y1="19.0813" x2="82.4204" y2="20.8296" gradientTransform="matrix(0.8614 -0.7349 0.4974 0.7729 -52.0832 71.6201)">
				<stop  offset="0" style="stop-color:#F8B7A1"/>
				<stop  offset="0.6485" style="stop-color:#EB202A"/>
				<stop  offset="1" style="stop-color:#D72027"/>
			</linearGradient>
			<path class="st48" d="M26.8,34.9c4.3-8.5,2.2-13.2-0.2-14.8c1.9,2.2,0.8,4.7,1.2,8.2C28.2,31.8,26.8,34.9,26.8,34.9"/>
		</g>
		<g>
			
				<linearGradient id="SVGID_37_" gradientUnits="userSpaceOnUse" x1="1463.8982" y1="50.6426" x2="1459.2502" y2="50.6426" gradientTransform="matrix(-1.1401 -1.430000e-02 -1.250000e-02 0.9999 1701.8954 9.6687)">
				<stop  offset="0" style="stop-color:#225DA1"/>
				<stop  offset="0.3173" style="stop-color:#3168AA"/>
				<stop  offset="0.9706" style="stop-color:#5289C2"/>
				<stop  offset="1" style="stop-color:#548BC3"/>
			</linearGradient>
			<path class="st49" d="M33.2,37.1c0.6-0.3,5-4.1,4.1-1.4c-0.4,1.1-1,1.7-0.4,2.3c0.4,0.4,1.1,0.3,0.3,1.5
				c-0.7,0.9-1.5,1.6-2.2,2.5c-0.6,0.8-1.6,1.6-2.3,2.1C32.1,44.5,31.9,37.8,33.2,37.1z"/>
		</g>
		<g>
			
				<linearGradient id="SVGID_38_" gradientUnits="userSpaceOnUse" x1="1149.0529" y1="-650.3958" x2="1144.3007" y2="-650.3958" gradientTransform="matrix(-0.7236 0.8812 0.7729 0.6346 1376.3003 -568.55)">
				<stop  offset="0" style="stop-color:#FFFFFF"/>
				<stop  offset="0.2355" style="stop-color:#E1EFF9"/>
				<stop  offset="0.5222" style="stop-color:#C8E3F5"/>
				<stop  offset="0.7851" style="stop-color:#B8DDF2"/>
				<stop  offset="1" style="stop-color:#B3DAF2"/>
			</linearGradient>
			<path class="st50" d="M44.2,31.5c0.1-0.8,0.5-1.7,0.9-2.3c0.3-0.5,0.9-1.2,0.8-1.9c-1.3-1.3-2.7,0.6-3.5,0.9
				c-0.5,0.2-0.3,1.8-0.4,2.3C41.7,31.2,43.9,32.9,44.2,31.5z"/>
		</g>
		<g>
			
				<linearGradient id="SVGID_39_" gradientUnits="userSpaceOnUse" x1="-140.3031" y1="1130.8915" x2="-145.0553" y2="1130.8915" gradientTransform="matrix(0.7236 0.8812 -0.7729 0.6346 1015.3501 -568.55)">
				<stop  offset="0" style="stop-color:#FFFFFF"/>
				<stop  offset="0.2355" style="stop-color:#E1EFF9"/>
				<stop  offset="0.5222" style="stop-color:#C8E3F5"/>
				<stop  offset="0.7851" style="stop-color:#B8DDF2"/>
				<stop  offset="1" style="stop-color:#B3DAF2"/>
			</linearGradient>
			<path class="st51" d="M37.7,25.8c-0.1-0.8-0.5-1.7-0.9-2.3c-0.3-0.5-0.9-1.2-0.8-1.9c1.3-1.3,2.7,0.6,3.5,0.9
				c0.5,0.2,0.3,1.8,0.4,2.3C40.2,25.4,38,27.1,37.7,25.8z"/>
		</g>
		<g>
			
				<linearGradient id="SVGID_40_" gradientUnits="userSpaceOnUse" x1="1452.2175" y1="47.0309" x2="1460.4415" y2="47.0309" gradientTransform="matrix(-1.1401 -1.430000e-02 -1.250000e-02 0.9999 1701.8954 9.6687)">
				<stop  offset="0" style="stop-color:#225DA1"/>
				<stop  offset="0.3173" style="stop-color:#3168AA"/>
				<stop  offset="0.9706" style="stop-color:#5289C2"/>
				<stop  offset="1" style="stop-color:#548BC3"/>
			</linearGradient>
			<path class="st52" d="M42.5,32.9c0.7,0,1.2,0.3,1.9,0.1c0.5-0.1,1.5-0.5,1.2,0.8c-0.2,0.9-1.3,1.4-1.8,1.4
				c-1.4,0.7-1.8,2.8-2.2,3.2c-0.3,0.4-0.8,0.4-1.1,0.6c-0.4,0.3-0.8,0.7-1.2,0.9c-0.3,0.2-0.8,0.5-0.8-0.1c0-0.6,0.7-1.2,0.9-1.7
				c0.4-0.7,0.4-0.9,0.1-1.4c-0.2-0.4-0.3-0.7-0.4-1.2c-0.4-1.2-1.3-0.9-2-1.4c-0.4,0.2-0.7,0-0.8-0.5c0-0.1,0-0.1,0-0.1
				C38.2,29.6,40.7,32.9,42.5,32.9z"/>
		</g>
		<radialGradient id="SVGID_41_" cx="36.5255" cy="32.8245" r="8.5152" gradientUnits="userSpaceOnUse">
			<stop  offset="0" style="stop-color:#437CB8"/>
			<stop  offset="1" style="stop-color:#255D9F"/>
		</radialGradient>
		<path class="st53" d="M44.3,34.2c-0.6-0.3-2.2-0.7-2.9-0.9c-1.2-0.2-1.7-0.1-2.8-0.3c-0.5-0.1-1.1-0.3-1.8-0.5
			c-0.1,0.2-0.2,0.4-0.4,0.6c0,0,0.1,0,0.1,0c1,0.2,2.2,0.2,2.9,0.4c0.6,0.1,1.3,0.4,2,0.5c0.7,0.1,1.3,0,1.9,0.2
			c0.3,0.1,0.9,0.3,1.4,0.4c0.1,0,0.1,0,0.2,0c0.2-0.1,0.4-0.3,0.5-0.6C45.2,34.4,44.8,34.5,44.3,34.2z"/>
		
			<linearGradient id="SVGID_42_" gradientUnits="userSpaceOnUse" x1="1613.9049" y1="34.6937" x2="1600.8235" y2="34.6937" gradientTransform="matrix(-1 0 0 1 1646.2617 0)">
			<stop  offset="0" style="stop-color:#E4F1FB"/>
			<stop  offset="1" style="stop-color:#B6D8F2"/>
		</linearGradient>
		<path class="st54" d="M34.1,39.4c3.2,4.7,8-4.2,11.3-4.4c0.8,0-13.4,12.4-12.7,9.1c0.4-1.9-0.5-12.4-0.3-19.3
			C34,25.2,33.3,38.3,34.1,39.4z"/>
		<path class="st35" d="M45.4,35c-0.1,0-0.2,0-0.3,0c0,0,0,0,0,0c0,0-0.1,0-0.1,0c-0.1,0-0.1,0-0.2,0c0,0-0.1,0-0.1,0
			c0,0-0.1,0-0.1,0c0,0-0.1,0-0.1,0c-0.1,0-0.1,0.1-0.2,0.1c0,0-0.1,0-0.1,0c0,0-0.1,0-0.1,0.1c0,0,0,0-0.1,0
			c-0.1,0-0.2,0.1-0.2,0.1c0,0,0,0-0.1,0c0,0-0.1,0.1-0.1,0.1c0,0,0,0-0.1,0c-0.2,0.1-0.3,0.2-0.5,0.3c0,0,0,0,0,0
			c-1.3,1-2.7,2.4-4,3.4c0,0,0,0,0,0c-0.2,0.1-0.3,0.2-0.5,0.4c0,0,0,0,0,0c-0.2,0.1-0.3,0.2-0.5,0.3c0,0,0,0,0,0
			c-0.1,0-0.1,0.1-0.2,0.1c0,0,0,0,0,0c-0.1,0-0.2,0.1-0.2,0.1c0,0,0,0,0,0c-0.1,0-0.1,0.1-0.2,0.1c-1.1,0.4-2.2,0.2-3.2-1.2
			c-0.4-0.6-0.4-4.5-0.6-8.1c-0.2,0-0.5,0-0.8,0c-0.1,0-0.2,0-0.3,0c0.2,5.7,0.5,11.4,0.3,12.8c0,0,0,0.1,0,0.1c0,0,0,0,0,0
			c0,0,0,0.1,0,0.1c0,0,0,0,0,0c0,0,0,0,0,0.1c0,0,0,0,0,0c0,0,0,0,0,0.1c0,0,0,0,0,0c0,0,0,0,0,0c0,0,0,0,0,0c0,0,0,0,0,0
			c0,0,0,0,0,0c0,0,0,0,0,0c0,0,0,0,0.1,0c0,0,0,0,0,0c0,0,0.1,0,0.1,0c0,0,0,0,0,0c0,0,0.1,0,0.1,0c0,0,0,0,0,0c0,0,0.1,0,0.1,0
			c0,0,0,0,0,0c0.1,0,0.3-0.1,0.4-0.2c0,0,0,0,0,0l0,0C37.1,42.9,46,34.9,45.4,35z"/>
		<path class="st7" d="M33.6,31.9c-0.4-0.1-0.8-0.2-1.1-0.3c0,0.2,0,0.5,0,0.7c0.4,0.1,0.7,0.1,1.1,0.2
			C33.6,32.3,33.6,32.1,33.6,31.9z"/>
		<path class="st7" d="M38.5,39.9c0.1,0.4,0.5,0.1,0.8,0c0.4-0.2,0.8-0.6,1.2-0.9c0.4-0.2,0.8-0.3,1.1-0.6c0.2-0.2,0.5-1.1,0.9-1.8
			C41.3,37.6,39.9,39,38.5,39.9z"/>
		<path class="st7" d="M35,41.9c0.4-0.5,0.7-0.8,1.1-1.2c-0.7-0.1-1.4-0.5-2-1.3c-0.2-0.3-0.3-1.3-0.4-2.6c-0.2,0.2-0.4,0.3-0.5,0.4
			c-0.2,0.1-0.4,0.4-0.5,0.8c0.1,3,0.2,5.3,0,6.1C33.4,43.5,34.3,42.7,35,41.9z"/>
		
			<linearGradient id="SVGID_43_" gradientUnits="userSpaceOnUse" x1="875.4374" y1="1053.6644" x2="884.4404" y2="1053.6644" gradientTransform="matrix(1.260000e-02 0.9999 -0.9999 1.260000e-02 1076.8711 -854.3748)">
			<stop  offset="0" style="stop-color:#D5EAF8"/>
			<stop  offset="1" style="stop-color:#B3DAF2"/>
		</linearGradient>
		<path class="st55" d="M34,41c-0.7-2.1-0.5-7.3-0.6-6.7c-0.7,5.4-0.1,10.8,2.1,8.3C36.6,41.5,34.6,43.1,34,41z"/>
		
			<linearGradient id="SVGID_44_" gradientUnits="userSpaceOnUse" x1="896.2132" y1="-650.8384" x2="907.9641" y2="-650.8384" gradientTransform="matrix(-1.260000e-02 0.9999 0.9999 1.260000e-02 690.3672 -854.3748)">
			<stop  offset="0" style="stop-color:#D5EAF8"/>
			<stop  offset="1" style="stop-color:#B3DAF2"/>
		</linearGradient>
		<path class="st56" d="M28.7,43c0.5-2.2,1.1-5.1,1.1-9.5c0.7,5.4-0.6,13.7-2.9,11.3C25.7,43.7,28,45.8,28.7,43z"/>
		<path class="st25" d="M39.8,39.6c0.1,0.2,0.3,0.4,0.5,0.6c0.1-0.1,0.3-0.1,0.5-0.2c0.9-0.3,0.7-0.9,1.6-1.2
			c0.3-0.1,0.6-0.3,0.8-0.4c-0.1-0.2-0.2-0.3-0.4-0.5c-0.1,0.1-0.2,0.1-0.3,0.2C42.1,38.4,40.5,38.5,39.8,39.6
			C39.8,39.6,39.8,39.6,39.8,39.6z"/>
		<path class="st4" d="M43.9,11.5c0.2,0.1-2-0.1-3.7-0.2c-2-0.1-2.5,1.3-2.7,1C36.8,10.6,42.8,11,43.9,11.5z"/>
		<g>
			<path class="st6" d="M15.5,26.6c0,1.2-0.7,2.2-1.5,2.2c-0.8,0-1.5-1-1.5-2.2c0-1.2,0.7-2.1,1.5-2.1
				C14.8,24.5,15.5,25.4,15.5,26.6z"/>
			<path class="st57" d="M15.4,26.6c0,1.2-0.6,2.1-1.4,2.1c-0.8,0-1.4-0.9-1.4-2.1c0-1.2,0.6-2.1,1.4-2.1
				C14.8,24.5,15.4,25.4,15.4,26.6z M14,24.5c-0.8,0-1.5,1-1.5,2.2c0,1.2,0.8,2.5,1.6,2.5c0.8,0,1.5-1.1,1.5-2.3
				C15.7,25.6,14.9,24.5,14,24.5z"/>
			<linearGradient id="SVGID_45_" gradientUnits="userSpaceOnUse" x1="14.0115" y1="24.6268" x2="14.0433" y2="25.8947">
				<stop  offset="0" style="stop-color:#FFFFFF"/>
				<stop  offset="1" style="stop-color:#B3DAF2"/>
			</linearGradient>
			<ellipse class="st58" cx="14" cy="25.2" rx="0.9" ry="0.7"/>
			<linearGradient id="SVGID_46_" gradientUnits="userSpaceOnUse" x1="14.0292" y1="27.5767" x2="14.0565" y2="28.6672">
				<stop  offset="0" style="stop-color:#FFFFFF"/>
				<stop  offset="1" style="stop-color:#B3DAF2"/>
			</linearGradient>
			<path class="st59" d="M15.1,27.5c0,0.5-0.3,1.3-1.1,1.3c-0.8,0-1.1-0.8-1.1-1.3c0.2,0.3,0.7,0.6,1.2,0.6
				C14.6,28.1,14.9,27.9,15.1,27.5z"/>
			<ellipse class="st4" cx="13.6" cy="25.4" rx="0.5" ry="0.4"/>
			<ellipse class="st4" cx="14.5" cy="26" rx="0.3" ry="0.3"/>
		</g>
		<g>
			
				<radialGradient id="SVGID_47_" cx="-494.4844" cy="16.6497" r="2.7518" gradientTransform="matrix(0.6684 0 0 1 338.4978 0)" gradientUnits="userSpaceOnUse">
				<stop  offset="0" style="stop-color:#D2E8F7"/>
				<stop  offset="0.6923" style="stop-color:#B3DAF2"/>
				<stop  offset="1" style="stop-color:#5F99CE"/>
			</radialGradient>
			<path class="st60" d="M8.9,18c0,0.8-0.4,1.4-0.9,1.4c-0.5,0-0.9-0.6-0.9-1.4c0-0.8,0.4-1.4,0.9-1.4C8.5,16.6,8.9,17.2,8.9,18z"/>
			<path class="st57" d="M8.9,18c0,0.7-0.4,1.4-0.9,1.4c-0.5,0-0.9-0.6-0.9-1.4c0-0.7,0.4-1.4,0.9-1.4C8.5,16.6,8.9,17.3,8.9,18z
				 M8,16.6c-0.5,0-1,0.6-1,1.4c0,0.8,0.5,1.6,1,1.6c0.5,0,1-0.7,1-1.5C9,17.4,8.5,16.6,8,16.6z"/>
			<linearGradient id="SVGID_48_" gradientUnits="userSpaceOnUse" x1="7.9747" y1="16.7307" x2="7.9951" y2="17.5423">
				<stop  offset="0" style="stop-color:#FFFFFF"/>
				<stop  offset="1" style="stop-color:#B3DAF2"/>
			</linearGradient>
			<ellipse class="st61" cx="8" cy="17.1" rx="0.6" ry="0.5"/>
			<linearGradient id="SVGID_49_" gradientUnits="userSpaceOnUse" x1="7.986" y1="18.6472" x2="8.0035" y2="19.3458">
				<stop  offset="0" style="stop-color:#FFFFFF"/>
				<stop  offset="1" style="stop-color:#B3DAF2"/>
			</linearGradient>
			<path class="st62" d="M8.7,18.6c0,0.3-0.2,0.8-0.7,0.8c-0.5,0-0.7-0.5-0.7-0.8C7.4,18.8,7.7,19,8,19C8.4,19,8.5,18.8,8.7,18.6z"
				/>
			<ellipse class="st4" cx="7.7" cy="17.3" rx="0.3" ry="0.3"/>
			<ellipse class="st4" cx="8.3" cy="17.7" rx="0.2" ry="0.2"/>
		</g>
		<g>
			
				<radialGradient id="SVGID_50_" cx="3040.5" cy="17.9979" r="2.7519" gradientTransform="matrix(-0.6684 0 0 1 2072.0615 0)" gradientUnits="userSpaceOnUse">
				<stop  offset="0" style="stop-color:#D2E8F7"/>
				<stop  offset="0.6923" style="stop-color:#B3DAF2"/>
				<stop  offset="1" style="stop-color:#5F99CE"/>
			</radialGradient>
			<path class="st63" d="M38.9,19.3c0,0.8,0.4,1.4,0.9,1.4c0.5,0,0.9-0.6,0.9-1.4c0-0.8-0.4-1.4-0.9-1.4
				C39.3,18,38.9,18.6,38.9,19.3z"/>
			<path class="st57" d="M39.8,18c0.5,0,0.9,0.6,0.9,1.4c0,0.7-0.4,1.4-0.9,1.4c-0.5,0-0.9-0.6-0.9-1.4C38.9,18.6,39.3,18,39.8,18z
				 M38.7,19.4c0,0.8,0.2,1.8,1.1,1.8c0.5,0,1-1,1-1.8c0-0.8-0.4-1.4-1-1.4C39.3,18,38.7,18.6,38.7,19.4z"/>
			
				<linearGradient id="SVGID_51_" gradientUnits="userSpaceOnUse" x1="2370.7573" y1="18.0788" x2="2370.7776" y2="18.8907" gradientTransform="matrix(-1 0 0 1 2410.5586 0)">
				<stop  offset="0" style="stop-color:#FFFFFF"/>
				<stop  offset="1" style="stop-color:#B3DAF2"/>
			</linearGradient>
			<ellipse class="st64" cx="39.8" cy="18.5" rx="0.6" ry="0.5"/>
			
				<linearGradient id="SVGID_52_" gradientUnits="userSpaceOnUse" x1="2370.7683" y1="19.9959" x2="2370.7859" y2="20.6941" gradientTransform="matrix(-1 0 0 1 2410.5586 0)">
				<stop  offset="0" style="stop-color:#FFFFFF"/>
				<stop  offset="1" style="stop-color:#B3DAF2"/>
			</linearGradient>
			<path class="st65" d="M39.1,19.9c0,0.3,0.2,0.8,0.7,0.8c0.5,0,0.7-0.5,0.7-0.8c-0.1,0.2-0.4,0.4-0.8,0.4
				C39.4,20.3,39.2,20.2,39.1,19.9z"/>
			<ellipse class="st4" cx="40.1" cy="18.5" rx="0.2" ry="0.2"/>
			<ellipse class="st4" cx="39.6" cy="18.9" rx="0.2" ry="0.1"/>
		</g>
		<g>
			
				<radialGradient id="SVGID_53_" cx="3037.9985" cy="25.0493" r="1.7614" gradientTransform="matrix(-0.6684 0 0 1 2072.0615 0)" gradientUnits="userSpaceOnUse">
				<stop  offset="0" style="stop-color:#D2E8F7"/>
				<stop  offset="0.6923" style="stop-color:#B3DAF2"/>
				<stop  offset="1" style="stop-color:#5F99CE"/>
			</radialGradient>
			<path class="st66" d="M40.9,25.9c0,0.5,0.3,0.9,0.6,0.9c0.3,0,0.6-0.4,0.6-0.9c0-0.5-0.3-0.9-0.6-0.9
				C41.1,25,40.9,25.4,40.9,25.9z"/>
			<path class="st57" d="M41.5,25c0.3,0,0.6,0.4,0.6,0.9c0,0.5-0.3,0.9-0.6,0.9c-0.3,0-0.6-0.4-0.6-0.9C40.9,25.4,41.1,25,41.5,25z
				 M40.8,26c0,0.5,0.2,1.1,0.7,1.1c0.3,0,0.6-0.6,0.6-1.1c0-0.5-0.3-0.9-0.6-0.9C41.1,25,40.8,25.5,40.8,26z"/>
			
				<linearGradient id="SVGID_54_" gradientUnits="userSpaceOnUse" x1="2369.0894" y1="25.1013" x2="2369.1023" y2="25.6213" gradientTransform="matrix(-1 0 0 1 2410.5586 0)">
				<stop  offset="0" style="stop-color:#FFFFFF"/>
				<stop  offset="1" style="stop-color:#B3DAF2"/>
			</linearGradient>
			<ellipse class="st67" cx="41.5" cy="25.4" rx="0.4" ry="0.3"/>
			
				<linearGradient id="SVGID_55_" gradientUnits="userSpaceOnUse" x1="2369.0959" y1="26.328" x2="2369.1072" y2="26.7745" gradientTransform="matrix(-1 0 0 1 2410.5586 0)">
				<stop  offset="0" style="stop-color:#FFFFFF"/>
				<stop  offset="1" style="stop-color:#B3DAF2"/>
			</linearGradient>
			<path class="st68" d="M41,26.3c0,0.2,0.1,0.5,0.5,0.5c0.3,0,0.5-0.3,0.5-0.5c-0.1,0.1-0.3,0.2-0.5,0.2
				C41.2,26.5,41.1,26.4,41,26.3z"/>
			<ellipse class="st4" cx="41.7" cy="25.4" rx="0.2" ry="0.1"/>
			<ellipse class="st4" cx="41.4" cy="25.6" rx="0.1" ry="0.1"/>
		</g>
	</g>
	<g>
		<g>
			<linearGradient id="SVGID_56_" gradientUnits="userSpaceOnUse" x1="58.1603" y1="35.9622" x2="58.1603" y2="42.7194">
				<stop  offset="0" style="stop-color:#F69320"/>
				<stop  offset="1" style="stop-color:#BC2026"/>
			</linearGradient>
			<path class="st69" d="M59.5,36.7c-0.2-0.1-0.3-0.1-0.5-0.1c-0.3,0-0.5,0.1-0.6,0.3c-0.2,0.2-0.3,0.4-0.3,0.7c0,0.1,0,0.2,0,0.3h1
				v0.7h-1v4.1h-0.8v-4.1h-0.7v-0.7h0.7c0-0.6,0.1-1.1,0.4-1.4c0.3-0.3,0.7-0.5,1.2-0.5c0.2,0,0.5,0,0.8,0.1L59.5,36.7z"/>
			<linearGradient id="SVGID_57_" gradientUnits="userSpaceOnUse" x1="61.4818" y1="36.1142" x2="61.4818" y2="42.7194">
				<stop  offset="0" style="stop-color:#F69320"/>
				<stop  offset="1" style="stop-color:#BC2026"/>
			</linearGradient>
			<path class="st70" d="M61.3,42.7v-4.1h-0.7v-0.7h1.5v4.8H61.3z M61.8,36.1c0.1,0,0.3,0.1,0.4,0.2c0.1,0.1,0.2,0.2,0.2,0.4
				c0,0.1-0.1,0.3-0.2,0.4c-0.1,0.1-0.2,0.2-0.4,0.2c-0.1,0-0.3-0.1-0.4-0.2c-0.1-0.1-0.2-0.2-0.2-0.4c0-0.1,0.1-0.3,0.2-0.4
				C61.5,36.2,61.6,36.1,61.8,36.1z"/>
			<linearGradient id="SVGID_58_" gradientUnits="userSpaceOnUse" x1="65.6326" y1="37.8372" x2="65.6326" y2="42.7194">
				<stop  offset="0" style="stop-color:#F69320"/>
				<stop  offset="1" style="stop-color:#BC2026"/>
			</linearGradient>
			<path class="st71" d="M66.7,38.7c-0.2-0.1-0.4-0.2-0.6-0.2c-0.3,0-0.6,0.1-0.8,0.4c-0.2,0.3-0.3,0.6-0.3,1v2.7h-0.8v-4.8H65v0.8
				c0.3-0.6,0.8-0.9,1.4-0.9c0.2,0,0.4,0,0.7,0.1L66.7,38.7z"/>
			<linearGradient id="SVGID_59_" gradientUnits="userSpaceOnUse" x1="70.1783" y1="37.8372" x2="70.1783" y2="42.809">
				<stop  offset="0" style="stop-color:#F69320"/>
				<stop  offset="1" style="stop-color:#BC2026"/>
			</linearGradient>
			<path class="st72" d="M72.3,40.4h-3.4c0,0.6,0.2,1,0.5,1.3c0.3,0.3,0.6,0.4,1,0.4c0.5,0,0.9-0.1,1.2-0.4l0.4,0.6
				c-0.1,0.1-0.3,0.2-0.6,0.3c-0.3,0.1-0.7,0.2-1.1,0.2c-0.6,0-1.1-0.2-1.5-0.6c-0.5-0.5-0.7-1.1-0.7-1.8c0-0.8,0.2-1.4,0.7-1.9
				c0.4-0.4,0.9-0.6,1.5-0.6c0.7,0,1.2,0.2,1.6,0.6c0.4,0.4,0.6,0.9,0.6,1.5C72.4,40.1,72.3,40.2,72.3,40.4z M70.3,38.6
				c-0.4,0-0.7,0.1-0.9,0.4c-0.2,0.2-0.4,0.5-0.4,0.9h2.6c0-0.3-0.1-0.6-0.3-0.9C71,38.7,70.7,38.6,70.3,38.6z"/>
		</g>
		<g>
			<linearGradient id="SVGID_60_" gradientUnits="userSpaceOnUse" x1="78.5023" y1="37.8372" x2="78.5023" y2="42.809">
				<stop  offset="0" style="stop-color:#28A8E0"/>
				<stop  offset="1" style="stop-color:#1D76BB"/>
			</linearGradient>
			<path class="st73" d="M77,42.4l0.3-0.8c0.5,0.3,0.8,0.5,1.1,0.5c0.5,0,0.8-0.2,0.8-0.7c0-0.3-0.3-0.6-0.8-0.8
				c-0.4-0.2-0.6-0.3-0.8-0.4c-0.1-0.1-0.3-0.2-0.4-0.3c-0.1-0.1-0.2-0.2-0.2-0.4c0-0.1-0.1-0.3-0.1-0.4c0-0.4,0.1-0.7,0.4-0.9
				c0.3-0.2,0.7-0.3,1.1-0.3c0.3,0,0.8,0.1,1.3,0.3L79.6,39c-0.3-0.3-0.7-0.4-1-0.4c-0.2,0-0.4,0-0.5,0.1c-0.1,0.1-0.2,0.2-0.2,0.4
				c0,0.3,0.2,0.5,0.5,0.7L79,40c0.4,0.2,0.6,0.4,0.8,0.6c0.2,0.2,0.3,0.5,0.3,0.8c0,0.4-0.1,0.8-0.4,1c-0.3,0.2-0.7,0.4-1.2,0.4
				C77.9,42.8,77.4,42.7,77,42.4z"/>
			<linearGradient id="SVGID_61_" gradientUnits="userSpaceOnUse" x1="83.4138" y1="37.8372" x2="83.4138" y2="42.809">
				<stop  offset="0" style="stop-color:#28A8E0"/>
				<stop  offset="1" style="stop-color:#1D76BB"/>
			</linearGradient>
			<path class="st74" d="M81.3,40.3c0-0.7,0.2-1.3,0.6-1.8c0.4-0.5,0.9-0.7,1.6-0.7c0.7,0,1.2,0.2,1.6,0.7s0.6,1,0.6,1.8
				c0,0.8-0.2,1.4-0.6,1.8c-0.4,0.4-0.9,0.7-1.6,0.7c-0.7,0-1.2-0.2-1.6-0.7C81.5,41.7,81.3,41.1,81.3,40.3z M82.2,40.3
				c0,1.2,0.4,1.8,1.3,1.8c0.4,0,0.7-0.2,0.9-0.5c0.2-0.3,0.3-0.8,0.3-1.3c0-1.2-0.4-1.8-1.3-1.8c-0.4,0-0.7,0.2-0.9,0.5
				C82.3,39.3,82.2,39.8,82.2,40.3z"/>
			<linearGradient id="SVGID_62_" gradientUnits="userSpaceOnUse" x1="87.9705" y1="35.9622" x2="87.9705" y2="42.809">
				<stop  offset="0" style="stop-color:#28A8E0"/>
				<stop  offset="1" style="stop-color:#1D76BB"/>
			</linearGradient>
			<path class="st75" d="M87.2,41.4V36H88v5.3c0,0.3,0.1,0.5,0.2,0.6c0.1,0.1,0.3,0.2,0.6,0.2v0.8C87.7,42.8,87.2,42.3,87.2,41.4z"
				/>
			<linearGradient id="SVGID_63_" gradientUnits="userSpaceOnUse" x1="92.2855" y1="37.9267" x2="92.2855" y2="42.809">
				<stop  offset="0" style="stop-color:#28A8E0"/>
				<stop  offset="1" style="stop-color:#1D76BB"/>
			</linearGradient>
			<path class="st76" d="M91.2,37.9V41c0,0.7,0.3,1.1,1,1.1c0.3,0,0.5-0.1,0.8-0.2c0.2-0.2,0.4-0.3,0.5-0.6v-3.4h0.8v4.8h-0.8v-0.7
				c-0.1,0.2-0.3,0.4-0.6,0.5c-0.3,0.2-0.6,0.2-0.8,0.2c-0.5,0-0.9-0.2-1.2-0.5c-0.3-0.3-0.4-0.7-0.4-1.3v-3.1H91.2z"/>
			<linearGradient id="SVGID_64_" gradientUnits="userSpaceOnUse" x1="97.2703" y1="36.5977" x2="97.2703" y2="42.809">
				<stop  offset="0" style="stop-color:#28A8E0"/>
				<stop  offset="1" style="stop-color:#1D76BB"/>
			</linearGradient>
			<path class="st77" d="M96.3,38.6h-0.6v-0.7h0.6v-1l0.8-0.3v1.3h1.3v0.7h-1.3V41c0,0.4,0.1,0.7,0.2,0.9c0.1,0.2,0.4,0.3,0.6,0.3
				c0.2,0,0.4-0.1,0.7-0.2l0.1,0.7c-0.3,0.1-0.7,0.1-1.1,0.1c-0.4,0-0.7-0.1-1-0.4c-0.3-0.3-0.4-0.6-0.4-1.1V38.6z"/>
			<linearGradient id="SVGID_65_" gradientUnits="userSpaceOnUse" x1="100.8113" y1="36.1142" x2="100.8113" y2="42.7194">
				<stop  offset="0" style="stop-color:#28A8E0"/>
				<stop  offset="1" style="stop-color:#1D76BB"/>
			</linearGradient>
			<path class="st78" d="M100.6,42.7v-4.1H100v-0.7h1.5v4.8H100.6z M101.1,36.1c0.1,0,0.3,0.1,0.4,0.2c0.1,0.1,0.2,0.2,0.2,0.4
				c0,0.1-0.1,0.3-0.2,0.4c-0.1,0.1-0.2,0.2-0.4,0.2c-0.1,0-0.3-0.1-0.4-0.2c-0.1-0.1-0.2-0.2-0.2-0.4c0-0.1,0.1-0.3,0.2-0.4
				C100.8,36.2,101,36.1,101.1,36.1z"/>
			<linearGradient id="SVGID_66_" gradientUnits="userSpaceOnUse" x1="105.3014" y1="37.8372" x2="105.3014" y2="42.809">
				<stop  offset="0" style="stop-color:#28A8E0"/>
				<stop  offset="1" style="stop-color:#1D76BB"/>
			</linearGradient>
			<path class="st79" d="M103.2,40.3c0-0.7,0.2-1.3,0.6-1.8c0.4-0.5,0.9-0.7,1.6-0.7c0.7,0,1.2,0.2,1.6,0.7c0.4,0.4,0.6,1,0.6,1.8
				c0,0.8-0.2,1.4-0.6,1.8c-0.4,0.4-0.9,0.7-1.6,0.7c-0.7,0-1.2-0.2-1.6-0.7C103.3,41.7,103.2,41.1,103.2,40.3z M104,40.3
				c0,1.2,0.4,1.8,1.3,1.8c0.4,0,0.7-0.2,0.9-0.5c0.2-0.3,0.3-0.8,0.3-1.3c0-1.2-0.4-1.8-1.3-1.8c-0.4,0-0.7,0.2-0.9,0.5
				C104.2,39.3,104,39.8,104,40.3z"/>
			<linearGradient id="SVGID_67_" gradientUnits="userSpaceOnUse" x1="110.8562" y1="37.8372" x2="110.8562" y2="42.7194">
				<stop  offset="0" style="stop-color:#28A8E0"/>
				<stop  offset="1" style="stop-color:#1D76BB"/>
			</linearGradient>
			<path class="st80" d="M111.9,42.7v-2.8c0-0.5-0.1-0.9-0.2-1.1c-0.2-0.2-0.4-0.3-0.8-0.3c-0.2,0-0.4,0.1-0.6,0.2
				c-0.2,0.1-0.4,0.3-0.5,0.4v3.6H109v-4.8h0.6l0.3,0.6c0.3-0.5,0.7-0.7,1.4-0.7c1,0,1.6,0.6,1.6,1.9v3H111.9z"/>
			<linearGradient id="SVGID_68_" gradientUnits="userSpaceOnUse" x1="115.812" y1="37.8372" x2="115.812" y2="42.809">
				<stop  offset="0" style="stop-color:#28A8E0"/>
				<stop  offset="1" style="stop-color:#1D76BB"/>
			</linearGradient>
			<path class="st81" d="M114.3,42.4l0.3-0.8c0.5,0.3,0.8,0.5,1.1,0.5c0.5,0,0.8-0.2,0.8-0.7c0-0.3-0.3-0.6-0.8-0.8
				c-0.4-0.2-0.6-0.3-0.8-0.4c-0.1-0.1-0.3-0.2-0.4-0.3c-0.1-0.1-0.2-0.2-0.2-0.4c0-0.1-0.1-0.3-0.1-0.4c0-0.4,0.1-0.7,0.4-0.9
				c0.3-0.2,0.7-0.3,1.1-0.3c0.3,0,0.8,0.1,1.3,0.3l-0.2,0.8c-0.3-0.3-0.7-0.4-1-0.4c-0.2,0-0.4,0-0.5,0.1c-0.1,0.1-0.2,0.2-0.2,0.4
				c0,0.3,0.2,0.5,0.5,0.7l0.6,0.3c0.4,0.2,0.6,0.4,0.8,0.6c0.2,0.2,0.3,0.5,0.3,0.8c0,0.4-0.1,0.8-0.4,1c-0.3,0.2-0.7,0.4-1.2,0.4
				C115.2,42.8,114.7,42.7,114.3,42.4z"/>
		</g>
	</g>
</g>
</svg>
